<?xml version="1.0" encoding="utf-8"?>
<!-- Generator: Adobe Illustrator 25.0.0, SVG Export Plug-In . SVG Version: 6.00 Build 0)  -->
<svg version="1.1" xmlns="http://www.w3.org/2000/svg" xmlns:xlink="http://www.w3.org/1999/xlink" x="0px" y="0px"
	 viewBox="0 0 256 256" style="enable-background:new 0 0 256 256;" xml:space="preserve">
<style type="text/css">
	.st0{display:none;}
	.st1{display:inline;stroke:#000000;stroke-miterlimit:10;}
	.st2{display:inline;}
	.st3{fill:none;stroke:#00FF00;stroke-width:5;stroke-linecap:round;stroke-linejoin:round;stroke-miterlimit:10;}
	.st4{fill:none;stroke:#00FF00;stroke-width:4.6599;stroke-linecap:round;stroke-linejoin:round;stroke-miterlimit:10;}
	.st5{display:inline;fill:none;stroke:#00FF00;stroke-width:5;stroke-linecap:round;stroke-linejoin:round;stroke-miterlimit:10;}
	
		.st6{display:inline;fill:none;stroke:#00FF00;stroke-width:4.6599;stroke-linecap:round;stroke-linejoin:round;stroke-miterlimit:10;}
	.st7{display:inline;fill:none;stroke:#FFFFFF;stroke-width:5;stroke-linecap:round;stroke-linejoin:round;stroke-miterlimit:10;}
	.st8{display:inline;fill:#FFFF00;}
	.st9{fill:none;stroke:#FFFFFF;stroke-width:5;stroke-linecap:round;stroke-linejoin:round;stroke-miterlimit:10;}
	.st10{fill:#FFFF00;}
	.st11{display:inline;fill:#FFFFFF;}
	
		.st12{display:inline;fill:none;stroke:#FFFFFF;stroke-width:4.9703;stroke-linecap:round;stroke-linejoin:round;stroke-miterlimit:10;}
	.st13{display:inline;fill:none;stroke:#FFFFFF;stroke-width:8;stroke-linecap:round;stroke-linejoin:round;stroke-miterlimit:10;}
	.st14{fill:#FFFFFF;}
	.st15{clip-path:url(#SVGID_2_);}
	.st16{fill:#00FF00;}
	.st17{fill:#808080;}
</style>
<g id="taust" class="st0">
	<rect x="-1.7" y="-1.2" class="st1" width="260.7" height="258.5"/>
</g>
<g id="add_lights" class="st0">
	<g class="st2">
		<path d="M-563.6,592.8h-43.1c-15.8,0-28.7-12.8-28.7-28.7v-43.1c0-15.8,12.8-28.7,28.7-28.7h43.1c15.8,0,28.7,12.8,28.7,28.7v43.1
			C-535,580-547.8,592.8-563.6,592.8z"/>
		<path class="st3" d="M-575.9,566.7h-18.8c-7.9,0-14.3-6.4-14.3-14.3v-18.8c0-7.9,6.4-14.3,14.3-14.3h18.8
			c7.9,0,14.3,6.4,14.3,14.3v18.8C-561.6,560.3-568,566.7-575.9,566.7z"/>
		<line class="st4" x1="-564" y1="526" x2="-581.4" y2="526"/>
		<line class="st4" x1="-562.4" y1="532.8" x2="-581.4" y2="532.8"/>
		<line class="st4" x1="-562.4" y1="539.6" x2="-581.4" y2="539.6"/>
		<line class="st4" x1="-562.4" y1="546.4" x2="-581.4" y2="546.4"/>
		<line class="st4" x1="-562.4" y1="553.2" x2="-581.4" y2="553.2"/>
		<line class="st4" x1="-566.1" y1="560" x2="-581.4" y2="560"/>
	</g>
	<path class="st2" d="M-1094.4-804.4h-43.1c-15.8,0-28.7-12.8-28.7-28.7v-43.1c0-15.8,12.8-28.7,28.7-28.7h43.1
		c15.8,0,28.7,12.8,28.7,28.7v43.1C-1065.7-817.2-1078.5-804.4-1094.4-804.4z"/>
	<path class="st2" d="M-953-804.4h-43.1c-15.8,0-28.7-12.8-28.7-28.7v-43.1c0-15.8,12.8-28.7,28.7-28.7h43.1
		c15.8,0,28.7,12.8,28.7,28.7v43.1C-924.4-817.2-937.2-804.4-953-804.4z"/>
	<path class="st5" d="M-1104-831.5h-18.8c-7.9,0-14.3-6.4-14.3-14.3v-18.8c0-7.9,6.4-14.3,14.3-14.3h18.8c7.9,0,14.3,6.4,14.3,14.3
		v18.8C-1089.7-837.9-1096.1-831.5-1104-831.5z"/>
	<polyline class="st5" points="-1127.2,-862.5 -1114.9,-850.3 -1086.2,-879.1 	"/>
	<line class="st6" x1="-810" y1="-871.3" x2="-827.5" y2="-871.3"/>
	<line class="st6" x1="-812.3" y1="-857.6" x2="-831.3" y2="-857.6"/>
	<line class="st6" x1="-812.3" y1="-850.8" x2="-831.3" y2="-850.8"/>
	<line class="st6" x1="-812.3" y1="-844" x2="-831.3" y2="-844"/>
	<line class="st6" x1="-816" y1="-837.2" x2="-831.3" y2="-837.2"/>
	<path class="st2" d="M-814.4-804.4h-43.1c-15.8,0-28.7-12.8-28.7-28.7v-43.1c0-15.8,12.8-28.7,28.7-28.7h43.1
		c15.8,0,28.7,12.8,28.7,28.7v43.1C-785.7-817.2-798.5-804.4-814.4-804.4z"/>
	<path class="st7" d="M-849.5-826.8h18.8c7.9,0,14.3-6.4,14.3-14.3v-18.8c0-7.9-6.4-14.3-14.3-14.3h-18.8c-7.9,0-14.3,6.4-14.3,14.3
		v18.8l13.7-13.7l11.1,11.1l7.5-7.5l14.4,14.2"/>
	<path class="st7" d="M-808.8-844.9c1.7-2.4,2.7-5.3,2.7-8.4v-18.8c0-7.9-6.4-14.3-14.3-14.3h-18.8c-4.2,0-8,1.8-10.6,4.7"/>
	<circle class="st8" cx="-831.3" cy="-862.7" r="3.9"/>
	<g class="st2">
		<path d="M-954-808.6h-43.1c-15.8,0-28.7-12.8-28.7-28.7v-43.1c0-15.8,12.8-28.7,28.7-28.7h43.1c15.8,0,28.7,12.8,28.7,28.7v43.1
			C-925.3-821.4-938.1-808.6-954-808.6z"/>
		<path class="st3" d="M-966.3-834.7H-985c-7.9,0-14.3-6.4-14.3-14.3v-18.8c0-7.9,6.4-14.3,14.3-14.3h18.8c7.9,0,14.3,6.4,14.3,14.3
			v18.8C-951.9-841.1-958.3-834.7-966.3-834.7z"/>
		<line class="st4" x1="-954.3" y1="-875.4" x2="-971.8" y2="-875.4"/>
		<line class="st4" x1="-952.8" y1="-868.6" x2="-971.8" y2="-868.6"/>
		<line class="st4" x1="-952.8" y1="-861.8" x2="-971.8" y2="-861.8"/>
		<line class="st4" x1="-952.8" y1="-855" x2="-971.8" y2="-855"/>
		<line class="st4" x1="-952.8" y1="-848.2" x2="-971.8" y2="-848.2"/>
		<line class="st4" x1="-956.5" y1="-841.4" x2="-971.8" y2="-841.4"/>
	</g>
	<g class="st2">
		<path d="M-664.9-803.5H-708c-15.8,0-28.7-12.8-28.7-28.7v-43.1c0-15.8,12.8-28.7,28.7-28.7h43.1c15.8,0,28.7,12.8,28.7,28.7v43.1
			C-636.3-816.4-649.1-803.5-664.9-803.5z"/>
		<path class="st9" d="M-704-822.8h18.8c7.9,0,14.3-6.4,14.3-14.3v-18.8c0-7.9-6.4-14.3-14.3-14.3H-704c-7.9,0-14.3,6.4-14.3,14.3
			v18.8l13.7-13.7l11.1,11.1l7.5-7.5l14.4,14.2"/>
		<circle class="st10" cx="-685.9" cy="-858.7" r="3.9"/>
		<path class="st9" d="M-662.4-850.9c8.3-2.6,14.3-10.4,14.3-19.6c0-11.3-9.2-20.5-20.5-20.5c-8.7,0-16.2,5.5-19.2,13.2"/>
		<line class="st9" x1="-668.7" y1="-870.5" x2="-659.3" y2="-879.8"/>
	</g>
	<path class="st2" d="M-492.1-805.7h-43.1c-15.8,0-28.7-12.8-28.7-28.7v-43.1c0-15.8,12.8-28.7,28.7-28.7h43.1
		c15.8,0,28.7,12.8,28.7,28.7v43.1C-463.5-818.6-476.3-805.7-492.1-805.7z"/>
	<path class="st7" d="M-531-822.8h18.8c7.9,0,14.3-6.4,14.3-14.3v-18.8c0-7.9-6.4-14.3-14.3-14.3H-531c-7.9,0-14.3,6.4-14.3,14.3
		v18.8l13.7-13.7l11.1,11.1l7.5-7.5l14.4,14.2"/>
	<circle class="st8" cx="-512.8" cy="-858.7" r="3.9"/>
	<circle class="st11" cx="-490.4" cy="-867.2" r="4.7"/>
	<path class="st12" d="M-508.4-877.5c4.5-8.7,13-18.5,13-18.5s15.8,18.2,15.8,26.9c0,6.5-4,12.1-9.6,14.5"/>
	<path class="st13" d="M126.6,172c-23.9,0-43.2-19.4-43.2-43.2s19.4-43.2,43.2-43.2s43.2,19.4,43.2,43.2"/>
	<line class="st13" x1="126.2" y1="69.9" x2="126.3" y2="46.9"/>
	<line class="st13" x1="167.9" y1="86.9" x2="180.6" y2="74.4"/>
	<line class="st13" x1="185.4" y1="128.4" x2="208.4" y2="128.5"/>
	<line class="st13" x1="126.9" y1="187.6" x2="126.8" y2="210.5"/>
	<line class="st13" x1="85.2" y1="170.6" x2="72.6" y2="183.1"/>
	<line class="st13" x1="67.8" y1="129.1" x2="44.8" y2="129"/>
	<line class="st13" x1="84.7" y1="87.4" x2="72.2" y2="74.7"/>
	<circle class="st13" cx="179" cy="179.4" r="36.3"/>
	<line class="st13" x1="161.3" y1="179.4" x2="196.7" y2="179.4"/>
	<line class="st13" x1="179" y1="197.1" x2="179" y2="161.7"/>
</g>
<g id="add_lights_v2" class="st0">
	<g class="st2">
		<path class="st14" d="M-563.6,492.4h-43.1c-15.8,0-28.7,12.8-28.7,28.7v43.1c0,15.8,12.8,28.7,28.7,28.7h43.1
			c15.8,0,28.7-12.8,28.7-28.7v-43.1C-535,505.2-547.8,492.4-563.6,492.4z"/>
		<path class="st14" d="M-1094.4-904.8h-43.1c-15.8,0-28.7,12.8-28.7,28.7v43.1c0,15.8,12.8,28.7,28.7,28.7h43.1
			c15.8,0,28.7-12.8,28.7-28.7v-43.1C-1065.7-892-1078.5-904.8-1094.4-904.8z"/>
		<path class="st14" d="M-814.4-904.8h-43.1c-15.8,0-28.7,12.8-28.7,28.7v43.1c0,15.8,12.8,28.7,28.7,28.7h43.1
			c15.8,0,28.7-12.8,28.7-28.7v-43.1C-785.7-892-798.5-904.8-814.4-904.8z"/>
		<path class="st14" d="M-954-909h-43.1c-15.8,0-28.7,12.8-28.7,28.7v43.1c0,2.9,0.4,5.8,1.3,8.4c2.1,13.8,14,24.4,28.3,24.4h43.1
			c15.8,0,28.7-12.8,28.7-28.7v-43.1c0-2.9-0.4-5.8-1.3-8.4C-927.7-898.4-939.6-909-954-909z"/>
		<path class="st14" d="M-664.9-903.9H-708c-15.8,0-28.7,12.8-28.7,28.7v43.1c0,15.8,12.8,28.7,28.7,28.7h43.1
			c15.8,0,28.7-12.8,28.7-28.7v-43.1C-636.3-891.1-649.1-903.9-664.9-903.9z"/>
		<path class="st14" d="M-492.1-906.1h-43.1c-15.8,0-28.7,12.8-28.7,28.7v43.1c0,15.8,12.8,28.7,28.7,28.7h43.1
			c15.8,0,28.7-12.8,28.7-28.7v-43.1C-463.5-893.3-476.3-906.1-492.1-906.1z"/>
		<path class="st14" d="M125.9,70.5C125.9,70.5,125.9,70.5,125.9,70.5c2.2,0,4-1.8,4-4l0.1-20.7c0-2.2-1.8-4-4-4c-2.2,0-4,1.8-4,4
			l-0.1,20.7C121.9,68.7,123.7,70.5,125.9,70.5z"/>
		<path class="st14" d="M169.2,88.1c1,0,2-0.4,2.8-1.1l11.1-10.9c1.6-1.5,1.6-4.1,0.1-5.7c-1.5-1.6-4.1-1.6-5.7-0.1l-11.1,10.9
			c-1.6,1.5-1.6,4.1-0.1,5.7C167.1,87.7,168.1,88.1,169.2,88.1z"/>
		<path class="st14" d="M187.2,131.1l20.8,0.2c0,0,0,0,0,0c2.2,0,4-1.8,4-4c0-2.2-1.8-4-4-4l-20.8-0.2c0,0,0,0,0,0c-2.2,0-4,1.8-4,4
			C183.2,129.3,185,131.1,187.2,131.1z"/>
		<path class="st14" d="M80.6,168l-11.2,11.1c-1.6,1.6-1.6,4.1,0,5.7c0.8,0.8,1.8,1.2,2.8,1.2c1,0,2-0.4,2.8-1.2l11.2-11.1
			c1.6-1.6,1.6-4.1,0-5.7C84.7,166.5,82.2,166.5,80.6,168z"/>
		<path class="st14" d="M65.3,123.9C65.3,123.9,65.3,123.9,65.3,123.9l-20.9,0c-2.2,0-4,1.8-4,4c0,2.2,1.8,4,4,4c0,0,0,0,0,0l20.9,0
			c2.2,0,4-1.8,4-4C69.3,125.6,67.5,123.9,65.3,123.9z"/>
		<path class="st14" d="M80.1,87.5c0.8,0.8,1.8,1.2,2.8,1.2c1,0,2-0.4,2.8-1.2c1.6-1.6,1.6-4.1,0-5.7l-11-11c-1.6-1.6-4.1-1.6-5.7,0
			c-1.6,1.6-1.6,4.1,0,5.7L80.1,87.5z"/>
		<path class="st14" d="M178.7,138c-22.2,0-40.3,18.1-40.3,40.3s18.1,40.3,40.3,40.3s40.3-18.1,40.3-40.3S200.9,138,178.7,138z
			 M178.7,210.6c-17.8,0-32.3-14.5-32.3-32.3s14.5-32.3,32.3-32.3s32.3,14.5,32.3,32.3S196.5,210.6,178.7,210.6z"/>
		<path class="st14" d="M196.4,174.3h-13.7v-13.7c0-2.2-1.8-4-4-4s-4,1.8-4,4v13.7H161c-2.2,0-4,1.8-4,4s1.8,4,4,4h13.7V196
			c0,2.2,1.8,4,4,4s4-1.8,4-4v-13.7h13.7c2.2,0,4-1.8,4-4S198.6,174.3,196.4,174.3z"/>
		<path class="st14" d="M135.3,199.7h-18.6c-2.7,0-4.9-2.2-4.9-4.9v-21c0-4.2-2.3-8.1-6-10.2c-14-8-22.1-23.6-20.5-39.7
			c1.9-19.4,18-35.1,37.5-36.6c11.5-0.9,22.5,3,30.9,10.8c8.3,7.7,13.1,18.6,13.1,29.9c0,2.2,1.8,4,4,4s4-1.8,4-4
			c0-13.5-5.7-26.6-15.6-35.8c-10.1-9.3-23.2-13.9-36.9-12.9C99,81.1,79.7,99.9,77.4,123.1c-1.9,19.3,7.7,37.9,24.5,47.4
			c1.2,0.7,1.9,1.9,1.9,3.3v21c0,7.1,5.8,12.9,12.9,12.9h18.6c2.2,0,4-1.8,4-4S137.5,199.7,135.3,199.7z"/>
	</g>
</g>
<g id="add_picture" class="st0">
	<g class="st2">
		<path class="st14" d="M181.4,138.1c-22.2,0-40.3,18.1-40.3,40.3s18.1,40.3,40.3,40.3s40.3-18.1,40.3-40.3S203.6,138.1,181.4,138.1
			z M181.4,210.7c-17.8,0-32.3-14.5-32.3-32.3s14.5-32.3,32.3-32.3s32.3,14.5,32.3,32.3S199.2,210.7,181.4,210.7z"/>
		<path class="st14" d="M199.1,174.4h-13.7v-13.7c0-2.2-1.8-4-4-4s-4,1.8-4,4v13.7h-13.7c-2.2,0-4,1.8-4,4s1.8,4,4,4h13.7v13.7
			c0,2.2,1.8,4,4,4s4-1.8,4-4v-13.7h13.7c2.2,0,4-1.8,4-4S201.3,174.4,199.1,174.4z"/>
		
			<ellipse transform="matrix(0.9871 -0.1602 0.1602 0.9871 -13.0958 25.3066)" class="st14" cx="150.4" cy="93.9" rx="7.8" ry="7.8"/>
		<path class="st14" d="M130.8,174.7H83.2c-8.1,0-14.7-6.6-14.7-14.7v-25.9c0.1-0.1,0.2-0.2,0.3-0.2l25-25l19.7,19.7
			c1.6,1.6,4.1,1.6,5.7,0l12.6-12.6l23.4,20.2c0.8,0.7,1.7,1,2.6,1c1.1,0,2.2-0.5,3-1.4c1.4-1.7,1.3-4.2-0.4-5.6l-26.2-22.6
			c-1.6-1.4-4-1.3-5.4,0.2l-12.4,12.4l-19.7-19.7c-1.6-1.6-4.1-1.6-5.7,0l-22.5,22.5V81.1c0-8.1,6.6-14.7,14.7-14.7h78.9
			c8.1,0,14.7,6.6,14.7,14.7v46.1c0,2.2,1.8,4,4,4s4-1.8,4-4V81.1c0-12.5-10.2-22.7-22.7-22.7H83.2c-12.5,0-22.7,10.2-22.7,22.7V160
			c0,12.5,10.2,22.7,22.7,22.7h47.5c2.2,0,4-1.8,4-4S133,174.7,130.8,174.7z"/>
	</g>
</g>
<g id="setup" class="st0">
	<g class="st2">
		<path class="st14" d="M129.2,164.6c-19.2,0-34.9-15.7-34.9-34.9c0-19.2,15.7-34.9,34.9-34.9s34.9,15.7,34.9,34.9
			C164.1,149,148.4,164.6,129.2,164.6z M129.2,102.8c-14.8,0-26.9,12.1-26.9,26.9c0,14.8,12.1,26.9,26.9,26.9s26.9-12.1,26.9-26.9
			C156.1,114.9,144,102.8,129.2,102.8z"/>
	</g>
	<g class="st2">
		<path class="st14" d="M132,67.7c1.5,0,2.8,0.9,3.4,2.3l4.5,10.7c0.4,1,1.2,1.8,2.3,2.1l4.1,1.3c0.4,0.1,0.8,0.2,1.1,0.2
			c0.7,0,1.3-0.2,1.9-0.5l9.9-6c0.6-0.4,1.3-0.5,1.9-0.5c0.8,0,1.5,0.2,2.2,0.7l4.5,3.3c1.2,0.9,1.8,2.4,1.4,3.8l-2.6,11.3
			c-0.2,1.1,0,2.2,0.6,3l2.5,3.5c0.6,0.9,1.6,1.4,2.7,1.5l11.6,1c1.5,0.1,2.8,1.1,3.2,2.6l1.7,5.3c0.5,1.4,0,3-1.1,4l-8.8,7.6
			c-0.8,0.7-1.3,1.7-1.3,2.8v4.3c0,1.1,0.5,2.1,1.3,2.8l8.8,7.6c1.1,1,1.6,2.5,1.1,4l-1.7,5.3c-0.5,1.4-1.7,2.4-3.2,2.6l-11.6,1
			c-1.1,0.1-2.1,0.6-2.7,1.5l-2.5,3.5c-0.6,0.9-0.9,2-0.6,3l2.6,11.3c0.3,1.5-0.2,3-1.4,3.8l-4.5,3.3c-0.6,0.5-1.4,0.7-2.2,0.7
			c-0.7,0-1.3-0.2-1.9-0.5l-9.9-6c-0.6-0.4-1.3-0.5-1.9-0.5c-0.4,0-0.8,0.1-1.1,0.2l-4.1,1.3c-1,0.3-1.9,1.1-2.3,2.1l-4.5,10.7
			c-0.6,1.4-1.9,2.3-3.4,2.3h-5.6c-1.5,0-2.8-0.9-3.4-2.3l-4.5-10.7c-0.4-1-1.2-1.8-2.3-2.1l-4.1-1.3c-0.4-0.1-0.8-0.2-1.1-0.2
			c-0.7,0-1.3,0.2-1.9,0.5l-9.9,6c-0.6,0.4-1.3,0.5-1.9,0.5c-0.8,0-1.5-0.2-2.2-0.7l-4.5-3.3c-1.2-0.9-1.8-2.4-1.4-3.8l2.6-11.3
			c0.2-1.1,0-2.2-0.6-3l-2.5-3.5c-0.6-0.9-1.6-1.4-2.7-1.5l-11.6-1c-1.5-0.1-2.8-1.1-3.2-2.6l-1.7-5.3c-0.5-1.4,0-3,1.1-4l8.8-7.6
			c0.8-0.7,1.3-1.7,1.3-2.8v-4.3c0-1.1-0.5-2.1-1.3-2.8l-8.8-7.6c-1.1-1-1.6-2.5-1.1-4l1.7-5.3c0.5-1.4,1.7-2.4,3.2-2.6l11.6-1
			c1.1-0.1,2.1-0.6,2.7-1.5l2.5-3.5c0.6-0.9,0.9-2,0.6-3L89,85c-0.3-1.5,0.2-3,1.4-3.8l4.5-3.3c0.6-0.5,1.4-0.7,2.2-0.7
			c0.7,0,1.3,0.2,1.9,0.5l9.9,6c0.6,0.4,1.3,0.5,1.9,0.5c0.4,0,0.8-0.1,1.1-0.2l4.1-1.3c1-0.3,1.9-1.1,2.3-2.1L123,70
			c0.6-1.4,1.9-2.3,3.4-2.3H132 M132,59.7h-5.6c-4.7,0-9,2.8-10.8,7.2l-3.7,8.9l-0.3,0.1l-8.3-5c-1.8-1.1-3.9-1.7-6.1-1.7
			c-2.5,0-4.9,0.8-6.9,2.2l-4.5,3.3c-3.8,2.8-5.6,7.5-4.5,12.1l2.2,9.4l-0.2,0.3l-9.6,0.8c-4.7,0.4-8.7,3.6-10.2,8.1l-1.7,5.3
			c-1.5,4.5-0.1,9.4,3.5,12.5l7.3,6.3v0.4l-7.3,6.3c-3.6,3.1-4.9,8-3.5,12.5l1.7,5.3c1.5,4.5,5.4,7.7,10.2,8.1l9.6,0.8l0.2,0.3
			l-2.2,9.4c-1.1,4.6,0.7,9.4,4.5,12.1l4.5,3.3c2,1.5,4.4,2.2,6.9,2.2c2.1,0,4.2-0.6,6.1-1.7l8.3-5l0.3,0.1l3.7,8.9
			c1.8,4.4,6.1,7.2,10.8,7.2h5.6c4.7,0,9-2.8,10.8-7.2l3.7-8.9l0.3-0.1l8.3,5c1.8,1.1,3.9,1.7,6.1,1.7c2.5,0,4.9-0.8,6.9-2.2
			l4.5-3.3c3.8-2.8,5.6-7.5,4.5-12.1l-2.2-9.4l0.2-0.3l9.6-0.8c4.7-0.4,8.7-3.6,10.2-8.1l1.7-5.3c1.5-4.5,0.1-9.4-3.5-12.5l-7.3-6.3
			v-0.4l7.3-6.3c3.6-3.1,4.9-8,3.5-12.5l-1.7-5.3c-1.5-4.5-5.4-7.7-10.2-8.1l-9.6-0.8l-0.2-0.3l2.2-9.4c1.1-4.6-0.7-9.4-4.5-12.1
			l-4.5-3.3c-2-1.5-4.4-2.2-6.9-2.2c-2.1,0-4.2,0.6-6.1,1.7l-8.3,5l-0.3-0.1l-3.7-8.9C141,62.5,136.7,59.7,132,59.7L132,59.7z"/>
	</g>
</g>
<g id="undo" class="st0">
	<path class="st11" d="M193,99.3c-2.2,0-4,1.8-4,4v56.3c0,17.2-14,31.3-31.3,31.3h-56.3c-17.2,0-31.3-14-31.3-31.3v-56.3
		c0-17.2,14-31.3,31.3-31.3h49.3l-23.8,23.8c-1.6,1.6-1.6,4.1,0,5.7c0.8,0.8,1.8,1.2,2.8,1.2c1,0,2-0.4,2.8-1.2l33.1-33.1
		l-33.1-33.1c-1.6-1.6-4.1-1.6-5.7,0c-1.6,1.6-1.6,4.1,0,5.7l23,23h-48.4c-21.6,0-39.3,17.6-39.3,39.3v56.3
		c0,21.6,17.6,39.3,39.3,39.3h56.3c21.6,0,39.3-17.6,39.3-39.3v-56.3C197,101.1,195.2,99.3,193,99.3z"/>
</g>
<g id="fx_settings" class="st0">
	<g class="st2">
		<path class="st14" d="M162.2,176H47.9c-7,0-12.6-5.7-12.6-12.6V92.1c0-7,5.7-12.6,12.6-12.6h163.7c7,0,12.6,5.7,12.6,12.6v46.8h-8
			V92.1c0-2.6-2.1-4.6-4.6-4.6H47.9c-2.6,0-4.6,2.1-4.6,4.6v71.2c0,2.6,2.1,4.6,4.6,4.6h114.3V176z"/>
	</g>
	<g class="st2">
		<path class="st14" d="M207.5,144.6l0.7,5.9l5.8,2.4l4.7-3.7c0.7-0.6,1.7-0.5,2.3,0.1l4.3,4.3c0.6,0.6,0.7,1.6,0.1,2.3l-3.7,4.7
			l2.4,5.8l5.9,0.7c0.9,0.1,1.6,0.9,1.6,1.7v6.1c0,0.9-0.7,1.6-1.6,1.7l-5.9,0.7l-2.4,5.8l3.7,4.7c0.6,0.7,0.5,1.7-0.1,2.3l-4.3,4.3
			c-0.6,0.6-1.6,0.7-2.3,0.1l-4.7-3.7l-5.8,2.4l-0.7,5.9c-0.1,0.9-0.9,1.6-1.7,1.6h-6.1c-0.9,0-1.6-0.7-1.7-1.6l-0.7-5.9l-5.8-2.4
			l-4.7,3.7c-0.7,0.6-1.7,0.5-2.3-0.1l-4.3-4.3c-0.6-0.6-0.7-1.6-0.1-2.3l3.7-4.7l-2.4-5.8l-5.9-0.7c-0.9-0.1-1.6-0.9-1.6-1.7v-6.1
			c0-0.9,0.7-1.6,1.6-1.7l5.9-0.7l2.4-5.8L180,156c-0.6-0.7-0.5-1.7,0.1-2.3l4.3-4.3c0.6-0.6,1.6-0.7,2.3-0.1l4.7,3.7l5.8-2.4
			l0.7-5.9c0.1-0.9,0.9-1.6,1.7-1.6h6.1C206.7,143.1,207.4,143.8,207.5,144.6z M218.5,171.9c0-8.7-7-15.7-15.7-15.7
			c-8.7,0-15.7,7-15.7,15.7c0,8.7,7,15.7,15.7,15.7C211.4,187.7,218.5,180.6,218.5,171.9z"/>
	</g>
	<g class="st2">
		<defs>
			<path id="SVGID_1_" d="M203.1,140.3c1.4,0,2.7,0.1,4,0.3V86.6H41.3v78.8H172C175,151.1,187.8,140.3,203.1,140.3z"/>
		</defs>
		<clipPath id="SVGID_2_">
			<use xlink:href="#SVGID_1_"  style="overflow:visible;"/>
		</clipPath>
		<g class="st15">
			<g>
				<g>
					<path class="st14" d="M81.2,159.8h-8.9L52.2,98.9h12.3l12.2,39.7L89,98.9h12.4L81.2,159.8z"/>
				</g>
				<g>
					<path class="st14" d="M120.6,109.5v15h24v10.6h-24v24.7h-11.9V98.9h40.1v10.6H120.6z"/>
				</g>
				<g>
					<path class="st14" d="M189.6,159.8l-11.8-21.2l-11.7,21.2h-13.6l18.9-31.2l-17.7-29.7h13.5l10.6,19.7l10.7-19.7h13.4
						l-17.7,29.7l19,31.2H189.6z"/>
				</g>
			</g>
		</g>
	</g>
</g>
<g id="align_vert" class="st0">
	<g class="st2">
		<path class="st14" d="M176.6,109H79.4c-7.5,0-13.6-6.1-13.6-13.6v-2.9c0-7.5,6.1-13.6,13.6-13.6h97.2c7.5,0,13.6,6.1,13.6,13.6
			v2.9C190.2,102.9,184.1,109,176.6,109z M79.4,87c-3.1,0-5.6,2.5-5.6,5.6v2.9c0,3.1,2.5,5.6,5.6,5.6h97.2c3.1,0,5.6-2.5,5.6-5.6
			v-2.9c0-3.1-2.5-5.6-5.6-5.6H79.4z"/>
	</g>
	<g class="st2">
		<path class="st14" d="M211.7,177H44.3c-7.5,0-13.6-6.1-13.6-13.6v-2.8c0-7.5,6.1-13.6,13.6-13.6h167.4c7.5,0,13.6,6.1,13.6,13.6
			v2.8C225.3,170.9,219.2,177,211.7,177z M44.3,155c-3.1,0-5.6,2.5-5.6,5.6v2.8c0,3.1,2.5,5.6,5.6,5.6h167.4c3.1,0,5.6-2.5,5.6-5.6
			v-2.8c0-3.1-2.5-5.6-5.6-5.6H44.3z"/>
	</g>
	<g class="st2">
		<path class="st14" d="M128,72.2c-1.1,0-2-0.9-2-2V49.9c0-1.1,0.9-2,2-2s2,0.9,2,2v20.3C130,71.3,129.1,72.2,128,72.2z"/>
	</g>
	<g class="st2">
		<path class="st14" d="M128,140.1c-1.1,0-2-0.9-2-2v-20.3c0-1.1,0.9-2,2-2s2,0.9,2,2v20.3C130,139.3,129.1,140.1,128,140.1z"/>
	</g>
	<g class="st2">
		<path class="st14" d="M128,208.1c-1.1,0-2-0.9-2-2v-20.3c0-1.1,0.9-2,2-2s2,0.9,2,2v20.3C130,207.2,129.1,208.1,128,208.1z"/>
	</g>
</g>
<g id="align_horiz" class="st0">
	<g class="st2">
		<path class="st14" d="M163.4,190.2h-2.8c-7.5,0-13.6-6.1-13.6-13.6V79.4c0-7.5,6.1-13.6,13.6-13.6h2.8c7.5,0,13.6,6.1,13.6,13.6
			v97.2C177,184.1,170.9,190.2,163.4,190.2z M160.6,73.8c-3.1,0-5.6,2.5-5.6,5.6v97.2c0,3.1,2.5,5.6,5.6,5.6h2.8
			c3.1,0,5.6-2.5,5.6-5.6V79.4c0-3.1-2.5-5.6-5.6-5.6H160.6z"/>
	</g>
	<g class="st2">
		<path class="st14" d="M95.4,225.3h-2.9c-7.5,0-13.6-6.1-13.6-13.6V44.3c0-7.5,6.1-13.6,13.6-13.6h2.9c7.5,0,13.6,6.1,13.6,13.6
			v167.4C109,219.2,102.9,225.3,95.4,225.3z M92.6,38.7c-3.1,0-5.6,2.5-5.6,5.6v167.4c0,3.1,2.5,5.6,5.6,5.6h2.9
			c3.1,0,5.6-2.5,5.6-5.6V44.3c0-3.1-2.5-5.6-5.6-5.6H92.6z"/>
	</g>
	<g class="st2">
		<path class="st14" d="M206.1,130h-20.3c-1.1,0-2-0.9-2-2s0.9-2,2-2h20.3c1.1,0,2,0.9,2,2S207.2,130,206.1,130z"/>
	</g>
	<g class="st2">
		<path class="st14" d="M138.1,130h-20.3c-1.1,0-2-0.9-2-2s0.9-2,2-2h20.3c1.1,0,2,0.9,2,2S139.3,130,138.1,130z"/>
	</g>
	<g class="st2">
		<path class="st14" d="M70.2,130H49.9c-1.1,0-2-0.9-2-2s0.9-2,2-2h20.3c1.1,0,2,0.9,2,2S71.3,130,70.2,130z"/>
	</g>
</g>
<g id="distribution__horiz" class="st0">
	<g class="st2">
		<path class="st14" d="M169.8,67.1h-2.9c-7.5,0-13.6,6.1-13.6,13.6v97.2c0,7.5,6.1,13.6,13.6,13.6h2.9c7.5,0,13.6-6.1,13.6-13.6
			V80.7C183.3,73.2,177.2,67.1,169.8,67.1z M175.3,177.8c0,3.1-2.5,5.6-5.6,5.6h-2.9c-3.1,0-5.6-2.5-5.6-5.6V80.7
			c0-3.1,2.5-5.6,5.6-5.6h2.9c3.1,0,5.6,2.5,5.6,5.6V177.8z"/>
		<path class="st14" d="M89.1,32h-2.8c-7.5,0-13.6,6.1-13.6,13.6V213c0,7.5,6.1,13.6,13.6,13.6h2.8c7.5,0,13.6-6.1,13.6-13.6V45.6
			C102.7,38.1,96.6,32,89.1,32z M94.7,213c0,3.1-2.5,5.6-5.6,5.6h-2.8c-3.1,0-5.6-2.5-5.6-5.6V45.6c0-3.1,2.5-5.6,5.6-5.6h2.8
			c3.1,0,5.6,2.5,5.6,5.6V213z"/>
		<path class="st14" d="M135.6,115.4c-0.8-0.8-2-0.8-2.8,0c-0.8,0.8-0.8,2,0,2.8l9,9h-27.6l9-9c0.8-0.8,0.8-2,0-2.8
			c-0.8-0.8-2-0.8-2.8,0L108,127.9c-0.4,0.4-0.6,0.9-0.6,1.4s0.2,1,0.6,1.4l12.4,12.4c0.4,0.4,0.9,0.6,1.4,0.6s1-0.2,1.4-0.6
			c0.8-0.8,0.8-2,0-2.8l-9-9h27.6l-9,9c-0.8,0.8-0.8,2,0,2.8c0.4,0.4,0.9,0.6,1.4,0.6s1-0.2,1.4-0.6l12.4-12.4c0.8-0.8,0.8-2,0-2.8
			L135.6,115.4z"/>
	</g>
</g>
<g id="distribution__vert" class="st0">
	<g class="st2">
		<path class="st14" d="M79.4,103.7h97.2c7.5,0,13.6-6.1,13.6-13.6v-2.8c0-7.5-6.1-13.6-13.6-13.6H79.4c-7.5,0-13.6,6.1-13.6,13.6
			v2.8C65.8,97.6,71.9,103.7,79.4,103.7z M73.8,87.2c0-3.1,2.5-5.6,5.6-5.6h97.2c3.1,0,5.6,2.5,5.6,5.6v2.8c0,3.1-2.5,5.6-5.6,5.6
			H79.4c-3.1,0-5.6-2.5-5.6-5.6V87.2z"/>
		<path class="st14" d="M211.7,153.3H44.3c-7.5,0-13.6,6.1-13.6,13.6v2.9c0,7.5,6.1,13.6,13.6,13.6h167.4c7.5,0,13.6-6.1,13.6-13.6
			v-2.9C225.3,159.4,219.2,153.3,211.7,153.3z M217.3,169.8c0,3.1-2.5,5.6-5.6,5.6H44.3c-3.1,0-5.6-2.5-5.6-5.6v-2.9
			c0-3.1,2.5-5.6,5.6-5.6h167.4c3.1,0,5.6,2.5,5.6,5.6V169.8z"/>
		<path class="st14" d="M139,123.2c0.4,0.4,0.9,0.6,1.4,0.6s1-0.2,1.4-0.6c0.8-0.8,0.8-2,0-2.8L129.4,108c-0.4-0.4-0.9-0.6-1.4-0.6
			s-1,0.2-1.4,0.6l-12.4,12.4c-0.8,0.8-0.8,2,0,2.8c0.8,0.8,2,0.8,2.8,0l9-9v27.6l-9-9c-0.8-0.8-2-0.8-2.8,0c-0.8,0.8-0.8,2,0,2.8
			l12.4,12.4c0.4,0.4,0.9,0.6,1.4,0.6s1-0.2,1.4-0.6l12.4-12.4c0.8-0.8,0.8-2,0-2.8s-2-0.8-2.8,0l-9,9v-27.6L139,123.2z"/>
	</g>
</g>
<g id="make_same_size" class="st0">
	<g class="st2">
		<path class="st14" d="M79.6,109.8h97.2c7.5,0,13.6-6.1,13.6-13.6v-2.9c0-7.5-6.1-13.6-13.6-13.6H79.6c-7.5,0-13.6,6.1-13.6,13.6
			v2.9C66,103.7,72.1,109.8,79.6,109.8z M74,93.4c0-3.1,2.5-5.6,5.6-5.6h97.2c3.1,0,5.6,2.5,5.6,5.6v2.9c0,3.1-2.5,5.6-5.6,5.6H79.6
			c-3.1,0-5.6-2.5-5.6-5.6V93.4z"/>
		<path class="st14" d="M211.9,147.6H44.5c-7.5,0-13.6,6.1-13.6,13.6v2.8c0,7.5,6.1,13.6,13.6,13.6h167.4c7.5,0,13.6-6.1,13.6-13.6
			v-2.8C225.5,153.7,219.4,147.6,211.9,147.6z M217.5,164c0,3.1-2.5,5.6-5.6,5.6H44.5c-3.1,0-5.6-2.5-5.6-5.6v-2.8
			c0-3.1,2.5-5.6,5.6-5.6h167.4c3.1,0,5.6,2.5,5.6,5.6V164z"/>
		<path class="st14" d="M213.4,81c-0.8-0.8-2-0.8-2.8,0c-0.8,0.8-0.8,2,0,2.8l9.3,9.3h-20.5c-1.1,0-2,0.9-2,2s0.9,2,2,2h19.9
			l-8.7,8.7c-0.8,0.8-0.8,2,0,2.8c0.4,0.4,0.9,0.6,1.4,0.6s1-0.2,1.4-0.6l12.4-12.4c0.4-0.4,0.6-0.9,0.6-1.4s-0.2-1-0.6-1.4
			L213.4,81z"/>
		<path class="st14" d="M234.1,94.5c-1.1,0-2,0.9-2,2v67.5c0,1.1,0.9,2,2,2s2-0.9,2-2V96.5C236.1,95.4,235.2,94.5,234.1,94.5z"/>
		<path class="st14" d="M44,109.2c0.5,0,1-0.2,1.4-0.6c0.8-0.8,0.8-2,0-2.8l-8.7-8.7h19.9c1.1,0,2-0.9,2-2s-0.9-2-2-2H36.2l9.3-9.3
			c0.8-0.8,0.8-2,0-2.8c-0.8-0.8-2-0.8-2.8,0L30.2,93.4c-0.4,0.4-0.6,0.9-0.6,1.4s0.2,1,0.6,1.4l12.4,12.4
			C43,109,43.5,109.2,44,109.2z"/>
		<path class="st14" d="M21.9,94.5c-1.1,0-2,0.9-2,2v67.5c0,1.1,0.9,2,2,2s2-0.9,2-2V96.5C23.9,95.4,23,94.5,21.9,94.5z"/>
	</g>
</g>
<g id="flip" class="st0">
	<g class="st2">
		<g>
			<path class="st14" d="M190.7,195.5c-3.1,0-6.3-1.1-8.8-3.2L54.6,83.5c-2.8-2.4-4.4-5.6-4.7-9.3s0.9-7.1,3.2-9.9l1.9-2.2
				c2.4-2.8,5.6-4.4,9.3-4.7c3.6-0.3,7.1,0.9,9.9,3.2l127.3,108.7c5.7,4.9,6.4,13.4,1.5,19.1l-1.9,2.2
				C198.4,193.8,194.5,195.5,190.7,195.5z M187.1,186.1c2.3,2,5.9,1.7,7.9-0.6l1.8-2.2c2-2.3,1.7-5.9-0.6-7.9L68.9,66.8
				c-2.3-2-5.9-1.7-7.9,0.6l-1.9,2.2c-2,2.3-1.7,5.9,0.6,7.9L187.1,186.1z"/>
		</g>
		<g>
			<path class="st14" d="M65.3,195.5c-3.8,0-7.7-1.6-10.3-4.8l-1.9-2.2c-4.9-5.7-4.2-14.3,1.5-19.1L98.5,132
				c1.7-1.4,4.2-1.2,5.6,0.4c1.4,1.7,1.2,4.2-0.4,5.6l-43.9,37.4c-2.3,2-2.6,5.5-0.6,7.9l1.9,2.2c2,2.3,5.5,2.6,7.9,0.6l46.2-39.4
				c1.7-1.4,4.2-1.2,5.6,0.4c1.4,1.7,1.2,4.2-0.4,5.6l-46.2,39.4C71.5,194.4,68.4,195.5,65.3,195.5z"/>
		</g>
		<g>
			<path class="st14" d="M157.1,119.9c-1.1,0-2.3-0.5-3-1.4c-1.4-1.7-1.2-4.2,0.5-5.6l41.7-35.4c2.3-2,2.6-5.5,0.6-7.9l-1.9-2.2
				c-2-2.3-5.5-2.6-7.9-0.6L143,104.2c-1.7,1.4-4.2,1.2-5.6-0.5c-1.4-1.7-1.2-4.2,0.5-5.6l44.1-37.5c5.7-4.9,14.3-4.2,19.1,1.5
				l1.9,2.2c4.9,5.7,4.2,14.3-1.5,19.1l-41.7,35.4C159,119.5,158,119.9,157.1,119.9z"/>
		</g>
		<g>
			<path class="st14" d="M128,206.6c-1.1,0-2-0.9-2-2v-43.8c0-1.1,0.9-2,2-2s2,0.9,2,2v43.8C130,205.7,129.1,206.6,128,206.6z"/>
		</g>
		<g>
			<path class="st14" d="M128,97.2c-1.1,0-2-0.9-2-2V51.4c0-1.1,0.9-2,2-2s2,0.9,2,2v43.8C130,96.3,129.1,97.2,128,97.2z"/>
		</g>
	</g>
</g>
<g id="arrow_right" class="st0">
	<g class="st2">
		<path class="st14" d="M100.4,202c-0.9,0-1.7-0.3-2.5-0.9c-1.7-1.4-2-3.9-0.7-5.6l53.2-67.5L97.3,60.5c-1.4-1.7-1.1-4.2,0.7-5.6
			c1.7-1.4,4.2-1.1,5.6,0.7l55.2,70c1.1,1.5,1.1,3.5,0,5l-55.2,70C102.8,201.5,101.6,202,100.4,202z"/>
	</g>
</g>
<g id="arrow_left" class="st0">
	<g class="st2">
		<path class="st14" d="M155.6,202c-1.2,0-2.4-0.5-3.1-1.5l-55.2-70c-1.1-1.5-1.1-3.5,0-5l55.2-70c1.4-1.7,3.9-2,5.6-0.7
			c1.7,1.4,2,3.9,0.7,5.6L105.5,128l53.2,67.5c1.4,1.7,1.1,4.2-0.7,5.6C157.3,201.7,156.5,202,155.6,202z"/>
	</g>
</g>
<g id="select_all" class="st0">
	<g class="st2">
		<path class="st14" d="M189.1,217h-84.8c-15.4,0-27.9-12.5-27.9-27.9v-84.8c0-15.4,12.5-27.9,27.9-27.9h84.8
			c15.4,0,27.9,12.5,27.9,27.9v84.8C217,204.5,204.5,217,189.1,217z M104.3,84.4c-11,0-19.9,8.9-19.9,19.9v84.8
			c0,11,8.9,19.9,19.9,19.9h84.8c11,0,19.9-8.9,19.9-19.9v-84.8c0-11-8.9-19.9-19.9-19.9H104.3z"/>
	</g>
	<g class="st2">
		<path class="st14" d="M63.5,183.4c-1.5,0-2.9-0.8-3.6-2.3c-1.8-3.8-2.8-7.9-2.8-12.1V96.2c0-22,17.9-39.9,39.9-39.9h72.8
			c3.8,0,7.6,0.8,11.1,2.3c2,0.9,3,3.2,2.1,5.3c-0.9,2-3.2,3-5.3,2.1c-2.5-1.1-5.2-1.6-7.9-1.6H97c-17.6,0-31.9,14.3-31.9,31.9V169
			c0,3,0.7,5.9,2,8.6c1,2,0.1,4.4-1.9,5.3C64.7,183.3,64.1,183.4,63.5,183.4z"/>
	</g>
	<g class="st2">
		<path class="st14" d="M45.4,166.1c-1.5,0-2.9-0.8-3.6-2.3C39.9,160,39,156,39,151.7V88.3C39,61.1,61.1,39,88.2,39h63.5
			c3.8,0,7.6,0.8,11.1,2.3c2,0.9,3,3.2,2.1,5.3c-0.9,2-3.2,3-5.3,2.1c-2.5-1.1-5.2-1.6-7.9-1.6H88.2C65.5,47,47,65.5,47,88.3v63.5
			c0,3,0.7,5.9,2,8.6c1,2,0.1,4.4-1.9,5.3C46.5,166,45.9,166.1,45.4,166.1z"/>
	</g>
	<g class="st2">
		<path class="st14" d="M137.9,177.6c-1.1,0-2.1-0.4-2.8-1.2l-28.6-28.6c-1.6-1.6-1.6-4.1,0-5.7c1.6-1.6,4.1-1.6,5.7,0l25.8,25.8
			l42.1-42.1c1.6-1.6,4.1-1.6,5.7,0c1.6,1.6,1.6,4.1,0,5.7l-44.9,44.9C140,177.2,139,177.6,137.9,177.6z"/>
	</g>
</g>
<g id="deselect_all" class="st0">
	<g class="st2">
		<path class="st14" d="M189.1,76.4h-84.8c-15.4,0-27.9,12.5-27.9,27.9v84.8c0,15.4,12.5,27.9,27.9,27.9h84.8
			c15.4,0,27.9-12.5,27.9-27.9v-84.8C217,88.9,204.5,76.4,189.1,76.4z M209,189.1c0,11-8.9,19.9-19.9,19.9h-84.8
			c-11,0-19.9-8.9-19.9-19.9v-84.8c0-11,8.9-19.9,19.9-19.9h84.8c11,0,19.9,8.9,19.9,19.9V189.1z"/>
		<path class="st14" d="M97,64.3h72.8c2.7,0,5.4,0.5,7.9,1.6c2,0.9,4.4-0.1,5.3-2.1c0.9-2-0.1-4.4-2.1-5.3
			c-3.5-1.5-7.2-2.3-11.1-2.3H97c-22,0-39.9,17.9-39.9,39.9V169c0,4.2,0.9,8.3,2.8,12.1c0.7,1.4,2.1,2.3,3.6,2.3
			c0.6,0,1.2-0.1,1.7-0.4c2-1,2.8-3.4,1.9-5.3c-1.3-2.7-2-5.6-2-8.6V96.2C65.2,78.6,79.5,64.3,97,64.3z"/>
		<path class="st14" d="M47,151.7V88.3C47,65.5,65.5,47,88.2,47h63.5c2.7,0,5.4,0.5,7.9,1.6c2,0.9,4.4-0.1,5.3-2.1
			c0.9-2-0.1-4.4-2.1-5.3c-3.5-1.5-7.2-2.3-11.1-2.3H88.2C61.1,39,39,61.1,39,88.3v63.5c0,4.2,0.9,8.3,2.8,12.1
			c0.7,1.4,2.1,2.3,3.6,2.3c0.6,0,1.2-0.1,1.7-0.4c2-1,2.8-3.4,1.9-5.3C47.7,157.7,47,154.8,47,151.7z"/>
		<path class="st14" d="M179.4,114.3c-1.6-1.6-4.1-1.6-5.7,0l-27.2,27.2l-27.2-27.2c-1.6-1.6-4.1-1.6-5.7,0c-1.6,1.6-1.6,4.1,0,5.7
			l27.2,27.2l-27.2,27.2c-1.6,1.6-1.6,4.1,0,5.7c0.8,0.8,1.8,1.2,2.8,1.2s2-0.4,2.8-1.2l27.2-27.2l27.2,27.2
			c0.8,0.8,1.8,1.2,2.8,1.2s2-0.4,2.8-1.2c1.6-1.6,1.6-4.1,0-5.7l-27.2-27.2l27.2-27.2C180.9,118.4,180.9,115.8,179.4,114.3z"/>
	</g>
</g>
<g id="select_all_copy" class="st0">
	<g class="st2">
		<path class="st14" d="M198.1,96.8c-1.6-1.6-4.1-1.6-5.7,0l-35.9,35.9l-23.9-23.9c-1.6-1.6-4.1-1.6-5.7,0c-1.6,1.6-1.6,4.1,0,5.7
			l26.7,26.7c0.8,0.8,1.8,1.2,2.8,1.2s2-0.4,2.8-1.2l38.7-38.7C199.6,100.9,199.6,98.4,198.1,96.8z"/>
		<path class="st14" d="M223.1,111c0-17.2-6.8-33.2-19.1-45.2c-12.3-12-28.6-18.3-45.8-17.7c-32.2,1-59,26.9-60.9,59
			c-1.5,25.3,12,48.9,34.6,60.2v33.8c0,6.4,5.2,11.6,11.7,11.6h33.2c6.4,0,11.7-5.2,11.7-11.7v-32.7h0.7v-1.5
			C210.1,156,223.1,134.7,223.1,111z M180.4,201.1c0,2-1.6,3.7-3.7,3.7h-33.2c-2,0-3.7-1.6-3.7-3.6v-32.7h40.5V201.1z M184.5,160.3
			c-0.1,0-0.1,0.1-0.1,0.1h-48.4c0,0-0.1-0.1-0.1-0.1c-19.9-9.8-31.9-30.5-30.5-52.7c1.7-28,25.1-50.6,53.2-51.5c0.6,0,1.1,0,1.7,0
			c14.4,0,27.9,5.5,38.3,15.5C209.2,82,215.1,96,215.1,111C215.1,132,203.4,150.9,184.5,160.3z"/>
		<path class="st14" d="M122.5,204.7h-8.3c-2,0-3.6-1.6-3.6-3.6v-34.3c0-2.8-1.6-5.2-4.1-6.5c-19.9-9.8-31.9-30.5-30.5-52.7
			c1.2-19.1,12.6-36.5,29.8-45.4c2-1,2.7-3.4,1.7-5.4c-1-2-3.4-2.7-5.4-1.7c-19.7,10.2-32.8,30.1-34.1,52
			c-1.5,25.3,12,48.9,34.6,60.2v33.8c0,6.4,5.2,11.6,11.6,11.6h8.3c2.2,0,4-1.8,4-4S124.7,204.7,122.5,204.7z"/>
		<path class="st14" d="M92.7,204.7h-8.3c-2,0-3.6-1.6-3.6-3.6v-34.3c0-2.8-1.6-5.2-4.1-6.5c-19.9-9.8-31.9-30.5-30.5-52.7
			C47.4,88.4,58.8,71,76,62.1c2-1,2.7-3.4,1.7-5.4c-1-2-3.4-2.7-5.4-1.7c-19.7,10.2-32.8,30.1-34.1,52c-1.5,25.3,12,48.9,34.6,60.2
			v33.8c0,6.4,5.2,11.6,11.6,11.6h8.3c2.2,0,4-1.8,4-4S94.9,204.7,92.7,204.7z"/>
	</g>
</g>
<g id="deselect_all_copy">
	<g>
		<path class="st14" d="M181.8,89c-1.6-1.6-4.1-1.6-5.7,0l-15.4,15.4L145.3,89c-1.6-1.6-4.1-1.6-5.7,0c-1.6,1.6-1.6,4.1,0,5.7
			l15.4,15.4l-15.4,15.4c-1.6,1.6-1.6,4.1,0,5.7c0.8,0.8,1.8,1.2,2.8,1.2s2-0.4,2.8-1.2l15.4-15.4l15.4,15.4
			c0.8,0.8,1.8,1.2,2.8,1.2s2-0.4,2.8-1.2c1.6-1.6,1.6-4.1,0-5.7l-15.4-15.4l15.4-15.4C183.4,93.1,183.4,90.6,181.8,89z"/>
		<path class="st14" d="M223.1,111c0-17.2-6.8-33.2-19.1-45.2c-12.3-12-28.6-18.3-45.8-17.7c-32.2,1-59,26.9-60.9,59
			c-1.5,25.3,12,48.9,34.6,60.2v33.8c0,6.4,5.2,11.6,11.7,11.6h33.2c6.4,0,11.7-5.2,11.7-11.7v-32.7h0.7v-1.5
			C210.1,156,223.1,134.7,223.1,111z M180.4,201.1c0,2-1.6,3.7-3.7,3.7h-33.2c-2,0-3.7-1.6-3.7-3.6v-32.7h40.5V201.1z M184.5,160.3
			c-0.1,0-0.1,0.1-0.1,0.1h-48.4c0,0-0.1-0.1-0.1-0.1c-19.9-9.8-31.9-30.5-30.5-52.7c1.7-28,25.1-50.6,53.2-51.5c0.6,0,1.1,0,1.7,0
			c14.4,0,27.9,5.5,38.3,15.5C209.2,82,215.1,96,215.1,111C215.1,132,203.4,150.9,184.5,160.3z"/>
		<path class="st14" d="M122.5,204.7h-8.3c-2,0-3.6-1.6-3.6-3.6v-34.3c0-2.8-1.6-5.2-4.1-6.5c-19.9-9.8-31.9-30.5-30.5-52.7
			c1.2-19.1,12.6-36.5,29.8-45.4c2-1,2.7-3.4,1.7-5.4c-1-2-3.4-2.7-5.4-1.7c-19.7,10.2-32.8,30.1-34.1,52
			c-1.5,25.3,12,48.9,34.6,60.2v33.8c0,6.4,5.2,11.6,11.6,11.6h8.3c2.2,0,4-1.8,4-4S124.7,204.7,122.5,204.7z"/>
		<path class="st14" d="M92.7,204.7h-8.3c-2,0-3.6-1.6-3.6-3.6v-34.3c0-2.8-1.6-5.2-4.1-6.5c-19.9-9.8-31.9-30.5-30.5-52.7
			C47.4,88.4,58.8,71,76,62.1c2-1,2.7-3.4,1.7-5.4c-1-2-3.4-2.7-5.4-1.7c-19.7,10.2-32.8,30.1-34.1,52c-1.5,25.3,12,48.9,34.6,60.2
			v33.8c0,6.4,5.2,11.6,11.6,11.6h8.3c2.2,0,4-1.8,4-4S94.9,204.7,92.7,204.7z"/>
	</g>
</g>
<g id="help" class="st0">
	<g class="st2">
		<path class="st14" d="M177.5,198.1H78.5c-11.3,0-20.5-9.2-20.5-20.5V78.5c0-11.3,9.2-20.5,20.5-20.5h99.1
			c11.3,0,20.5,9.2,20.5,20.5v99.1C198.1,188.9,188.9,198.1,177.5,198.1z M78.5,65.9c-6.9,0-12.5,5.6-12.5,12.5v99.1
			c0,6.9,5.6,12.5,12.5,12.5h99.1c6.9,0,12.5-5.6,12.5-12.5V78.5c0-6.9-5.6-12.5-12.5-12.5H78.5z"/>
	</g>
	<g class="st2">
		<path class="st14" d="M156.4,102c0,6.3-0.8,11.1-2.3,14.3c-1.5,3.3-4.7,6.8-9.5,10.5c-4.8,3.7-7.9,6.7-9.5,8.9
			c-1.5,2.2-2.3,4.6-2.3,7.1v4.6h-12.4c-2.2-2.9-3.4-6.6-3.4-11c0-2.3,0.9-4.7,2.7-7c1.8-2.3,5-5.4,9.6-9.2c4.6-3.8,7.6-6.7,9.1-8.9
			c1.5-2.1,2.2-4.9,2.2-8.4c0-6.8-5-10.3-14.9-10.3c-5.6,0-11.5,0.7-17.7,2l-3.2,0.7L104,83.9c8.7-3.1,16.6-4.6,23.7-4.6
			c9.8,0,17.1,1.8,21.7,5.4C154.1,88.2,156.4,94,156.4,102z M118,177v-19.7h16.3V177H118z"/>
	</g>
</g>
<g id="lamp_settings" class="st0">
	<g class="st2">
		<g>
			<path d="M-563.6,592.8h-43.1c-15.8,0-28.7-12.8-28.7-28.7v-43.1c0-15.8,12.8-28.7,28.7-28.7h43.1c15.8,0,28.7,12.8,28.7,28.7
				v43.1C-535,580-547.8,592.8-563.6,592.8z"/>
		</g>
		<g>
			<path class="st16" d="M-575.9,569.2h-18.8c-9.3,0-16.8-7.6-16.8-16.8v-18.8c0-9.3,7.6-16.8,16.8-16.8h18.8
				c9.3,0,16.8,7.6,16.8,16.8v18.8C-559.1,561.7-566.6,569.2-575.9,569.2z M-594.7,521.8c-6.5,0-11.8,5.3-11.8,11.8v18.8
				c0,6.5,5.3,11.8,11.8,11.8h18.8c6.5,0,11.8-5.3,11.8-11.8v-18.8c0-6.5-5.3-11.8-11.8-11.8H-594.7z"/>
		</g>
		<g>
			<path class="st16" d="M-564,528.3h-17.4c-1.3,0-2.3-1-2.3-2.3s1-2.3,2.3-2.3h17.4c1.3,0,2.3,1,2.3,2.3S-562.7,528.3-564,528.3z"
				/>
		</g>
		<g>
			<path class="st16" d="M-562.4,535.1h-19c-1.3,0-2.3-1-2.3-2.3s1-2.3,2.3-2.3h19c1.3,0,2.3,1,2.3,2.3S-561.1,535.1-562.4,535.1z"
				/>
		</g>
		<g>
			<path class="st16" d="M-562.4,541.9h-19c-1.3,0-2.3-1-2.3-2.3s1-2.3,2.3-2.3h19c1.3,0,2.3,1,2.3,2.3S-561.1,541.9-562.4,541.9z"
				/>
		</g>
		<g>
			<path class="st16" d="M-562.4,548.7h-19c-1.3,0-2.3-1-2.3-2.3s1-2.3,2.3-2.3h19c1.3,0,2.3,1,2.3,2.3S-561.1,548.7-562.4,548.7z"
				/>
		</g>
		<g>
			<path class="st16" d="M-562.4,555.5h-19c-1.3,0-2.3-1-2.3-2.3s1-2.3,2.3-2.3h19c1.3,0,2.3,1,2.3,2.3S-561.1,555.5-562.4,555.5z"
				/>
		</g>
		<g>
			<path class="st16" d="M-566.1,562.3h-15.3c-1.3,0-2.3-1-2.3-2.3s1-2.3,2.3-2.3h15.3c1.3,0,2.3,1,2.3,2.3
				S-564.8,562.3-566.1,562.3z"/>
		</g>
	</g>
	<g class="st2">
		<path d="M-1094.4-804.4h-43.1c-15.8,0-28.7-12.8-28.7-28.7v-43.1c0-15.8,12.8-28.7,28.7-28.7h43.1c15.8,0,28.7,12.8,28.7,28.7
			v43.1C-1065.7-817.2-1078.5-804.4-1094.4-804.4z"/>
	</g>
	<g class="st2">
		<path d="M-953-804.4h-43.1c-15.8,0-28.7-12.8-28.7-28.7v-43.1c0-15.8,12.8-28.7,28.7-28.7h43.1c15.8,0,28.7,12.8,28.7,28.7v43.1
			C-924.4-817.2-937.2-804.4-953-804.4z"/>
	</g>
	<g class="st2">
		<path class="st16" d="M-1104-829h-18.8c-9.3,0-16.8-7.6-16.8-16.8v-18.8c0-9.3,7.6-16.8,16.8-16.8h18.8c9.3,0,16.8,7.6,16.8,16.8
			v18.8C-1087.2-836.6-1094.7-829-1104-829z M-1122.8-876.4c-6.5,0-11.8,5.3-11.8,11.8v18.8c0,6.5,5.3,11.8,11.8,11.8h18.8
			c6.5,0,11.8-5.3,11.8-11.8v-18.8c0-6.5-5.3-11.8-11.8-11.8H-1122.8z"/>
	</g>
	<g class="st2">
		<path class="st16" d="M-1114.9-847.8c-0.6,0-1.3-0.2-1.8-0.7l-12.2-12.2c-1-1-1-2.6,0-3.5c1-1,2.6-1,3.5,0l10.5,10.5l27-27
			c1-1,2.6-1,3.5,0c1,1,1,2.6,0,3.5l-28.7,28.7C-1113.7-848.1-1114.3-847.8-1114.9-847.8z"/>
	</g>
	<g class="st2">
		<path class="st16" d="M-810-868.9h-17.4c-1.3,0-2.3-1-2.3-2.3s1-2.3,2.3-2.3h17.4c1.3,0,2.3,1,2.3,2.3S-808.7-868.9-810-868.9z"/>
	</g>
	<g class="st2">
		<path class="st16" d="M-812.3-855.3h-19c-1.3,0-2.3-1-2.3-2.3s1-2.3,2.3-2.3h19c1.3,0,2.3,1,2.3,2.3S-811-855.3-812.3-855.3z"/>
	</g>
	<g class="st2">
		<path class="st16" d="M-812.3-848.5h-19c-1.3,0-2.3-1-2.3-2.3s1-2.3,2.3-2.3h19c1.3,0,2.3,1,2.3,2.3S-811-848.5-812.3-848.5z"/>
	</g>
	<g class="st2">
		<path class="st16" d="M-812.3-841.7h-19c-1.3,0-2.3-1-2.3-2.3s1-2.3,2.3-2.3h19c1.3,0,2.3,1,2.3,2.3S-811-841.7-812.3-841.7z"/>
	</g>
	<g class="st2">
		<path class="st16" d="M-816-834.9h-15.3c-1.3,0-2.3-1-2.3-2.3s1-2.3,2.3-2.3h15.3c1.3,0,2.3,1,2.3,2.3S-814.7-834.9-816-834.9z"/>
	</g>
	<g class="st2">
		<path d="M-814.4-804.4h-43.1c-15.8,0-28.7-12.8-28.7-28.7v-43.1c0-15.8,12.8-28.7,28.7-28.7h43.1c15.8,0,28.7,12.8,28.7,28.7v43.1
			C-785.7-817.2-798.5-804.4-814.4-804.4z"/>
	</g>
	<g class="st2">
		<path class="st14" d="M-830.7-824.3h-18.8c-1.4,0-2.5-1.1-2.5-2.5s1.1-2.5,2.5-2.5h18.8c4.8,0,8.9-2.9,10.8-7l-11.6-11.4l-5.7,5.7
			c-1,1-2.6,1-3.5,0l-9.3-9.3l-11.9,11.9c-0.7,0.7-1.8,0.9-2.7,0.5c-0.9-0.4-1.5-1.3-1.5-2.3v-18.8c0-9.3,7.6-16.8,16.8-16.8h18.8
			c9.3,0,16.8,7.6,16.8,16.8v18.8C-813.9-831.8-821.4-824.3-830.7-824.3z M-831.6-853.7c0.6,0,1.3,0.2,1.8,0.7l10.9,10.8v-17.6
			c0-6.5-5.3-11.8-11.8-11.8h-18.8c-6.5,0-11.8,5.3-11.8,11.8v12.7l9.4-9.4c1-1,2.6-1,3.5,0l9.3,9.3l5.7-5.7
			C-832.8-853.5-832.2-853.7-831.6-853.7z"/>
	</g>
	<g class="st2">
		<path class="st14" d="M-808.8-842.4c-0.5,0-1-0.2-1.5-0.5c-1.1-0.8-1.4-2.4-0.5-3.5c1.5-2,2.3-4.4,2.3-7v-18.8
			c0-6.5-5.3-11.8-11.8-11.8h-18.8c-3.3,0-6.5,1.4-8.7,3.8c-0.9,1-2.5,1.1-3.5,0.2c-1-0.9-1.1-2.5-0.2-3.5c3.2-3.5,7.7-5.5,12.4-5.5
			h18.8c9.3,0,16.8,7.6,16.8,16.8v18.8c0,3.6-1.1,7-3.2,9.9C-807.2-842.8-808-842.4-808.8-842.4z"/>
	</g>
	<g class="st2">
		<circle class="st10" cx="-831.3" cy="-862.7" r="3.9"/>
	</g>
	<g class="st2">
		<g>
			<path d="M-954-808.6h-43.1c-15.8,0-28.7-12.8-28.7-28.7v-43.1c0-15.8,12.8-28.7,28.7-28.7h43.1c15.8,0,28.7,12.8,28.7,28.7v43.1
				C-925.3-821.4-938.1-808.6-954-808.6z"/>
		</g>
		<g>
			<path class="st16" d="M-966.3-832.2H-985c-9.3,0-16.8-7.6-16.8-16.8v-18.8c0-9.3,7.6-16.8,16.8-16.8h18.8
				c9.3,0,16.8,7.6,16.8,16.8v18.8C-949.4-839.8-957-832.2-966.3-832.2z M-985-879.6c-6.5,0-11.8,5.3-11.8,11.8v18.8
				c0,6.5,5.3,11.8,11.8,11.8h18.8c6.5,0,11.8-5.3,11.8-11.8v-18.8c0-6.5-5.3-11.8-11.8-11.8H-985z"/>
		</g>
		<g>
			<path class="st16" d="M-954.3-873.1h-17.4c-1.3,0-2.3-1-2.3-2.3s1-2.3,2.3-2.3h17.4c1.3,0,2.3,1,2.3,2.3S-953-873.1-954.3-873.1z
				"/>
		</g>
		<g>
			<path class="st16" d="M-952.8-866.3h-19c-1.3,0-2.3-1-2.3-2.3s1-2.3,2.3-2.3h19c1.3,0,2.3,1,2.3,2.3S-951.5-866.3-952.8-866.3z"
				/>
		</g>
		<g>
			<path class="st16" d="M-952.8-859.5h-19c-1.3,0-2.3-1-2.3-2.3s1-2.3,2.3-2.3h19c1.3,0,2.3,1,2.3,2.3S-951.5-859.5-952.8-859.5z"
				/>
		</g>
		<g>
			<path class="st16" d="M-952.8-852.7h-19c-1.3,0-2.3-1-2.3-2.3s1-2.3,2.3-2.3h19c1.3,0,2.3,1,2.3,2.3S-951.5-852.7-952.8-852.7z"
				/>
		</g>
		<g>
			<path class="st16" d="M-952.8-845.9h-19c-1.3,0-2.3-1-2.3-2.3s1-2.3,2.3-2.3h19c1.3,0,2.3,1,2.3,2.3S-951.5-845.9-952.8-845.9z"
				/>
		</g>
		<g>
			<path class="st16" d="M-956.5-839.1h-15.3c-1.3,0-2.3-1-2.3-2.3s1-2.3,2.3-2.3h15.3c1.3,0,2.3,1,2.3,2.3
				S-955.2-839.1-956.5-839.1z"/>
		</g>
	</g>
	<g class="st2">
		<g>
			<path d="M-664.9-803.5H-708c-15.8,0-28.7-12.8-28.7-28.7v-43.1c0-15.8,12.8-28.7,28.7-28.7h43.1c15.8,0,28.7,12.8,28.7,28.7v43.1
				C-636.3-816.4-649.1-803.5-664.9-803.5z"/>
		</g>
		<g>
			<path class="st14" d="M-685.3-820.3H-704c-1.4,0-2.5-1.1-2.5-2.5s1.1-2.5,2.5-2.5h18.8c4.8,0,8.9-2.9,10.8-7l-11.6-11.4l-5.7,5.7
				c-1,1-2.6,1-3.5,0l-9.3-9.3l-11.9,11.9c-0.7,0.7-1.8,0.9-2.7,0.5c-0.9-0.4-1.5-1.3-1.5-2.3v-18.8c0-9.3,7.6-16.8,16.8-16.8h18.8
				c9.3,0,16.8,7.6,16.8,16.8v18.8C-668.4-827.9-676-820.3-685.3-820.3z M-686.1-849.7c0.6,0,1.3,0.2,1.8,0.7l10.9,10.8v-17.6
				c0-6.5-5.3-11.8-11.8-11.8H-704c-6.5,0-11.8,5.3-11.8,11.8v12.7l9.4-9.4c1-1,2.6-1,3.5,0l9.3,9.3l5.7-5.7
				C-687.4-849.5-686.7-849.7-686.1-849.7z"/>
		</g>
		<g>
			<circle class="st10" cx="-685.9" cy="-858.7" r="3.9"/>
		</g>
		<g>
			<path class="st14" d="M-662.4-848.4c-1.1,0-2-0.7-2.4-1.7c-0.4-1.3,0.3-2.7,1.6-3.1c7.5-2.4,12.6-9.3,12.6-17.2
				c0-9.9-8.1-18-18-18c-7.4,0-14.2,4.6-16.8,11.6c-0.5,1.3-1.9,1.9-3.2,1.4c-1.3-0.5-1.9-1.9-1.4-3.2c3.4-8.8,12-14.8,21.5-14.8
				c12.7,0,23,10.3,23,23c0,10.1-6.4,18.9-16,21.9C-661.9-848.4-662.2-848.4-662.4-848.4z"/>
		</g>
		<g>
			<path class="st14" d="M-668.7-868c-0.6,0-1.3-0.2-1.8-0.7c-1-1-1-2.6,0-3.5l9.3-9.3c1-1,2.6-1,3.5,0c1,1,1,2.6,0,3.5l-9.3,9.3
				C-667.4-868.2-668-868-668.7-868z"/>
		</g>
	</g>
	<g class="st2">
		<path d="M-492.1-805.7h-43.1c-15.8,0-28.7-12.8-28.7-28.7v-43.1c0-15.8,12.8-28.7,28.7-28.7h43.1c15.8,0,28.7,12.8,28.7,28.7v43.1
			C-463.5-818.6-476.3-805.7-492.1-805.7z"/>
	</g>
	<g class="st2">
		<path class="st14" d="M-512.2-820.3H-531c-1.4,0-2.5-1.1-2.5-2.5s1.1-2.5,2.5-2.5h18.8c4.8,0,8.9-2.9,10.8-7l-11.6-11.4l-5.7,5.7
			c-1,1-2.6,1-3.5,0l-9.3-9.3l-11.9,11.9c-0.7,0.7-1.8,0.9-2.7,0.5c-0.9-0.4-1.5-1.3-1.5-2.3v-18.8c0-9.3,7.6-16.8,16.8-16.8h18.8
			c9.3,0,16.8,7.6,16.8,16.8v18.8C-495.4-827.9-502.9-820.3-512.2-820.3z M-513-849.7c0.6,0,1.3,0.2,1.8,0.7l10.9,10.8v-17.6
			c0-6.5-5.3-11.8-11.8-11.8H-531c-6.5,0-11.8,5.3-11.8,11.8v12.7l9.4-9.4c1-1,2.6-1,3.5,0l9.3,9.3l5.7-5.7
			C-514.3-849.5-513.7-849.7-513-849.7z"/>
	</g>
	<g class="st2">
		<circle class="st10" cx="-512.8" cy="-858.7" r="3.9"/>
	</g>
	<g class="st2">
		<circle class="st14" cx="-490.4" cy="-867.2" r="4.7"/>
	</g>
	<g class="st2">
		<path class="st14" d="M-489.2-852.1c-1,0-1.9-0.6-2.3-1.5c-0.5-1.3,0.1-2.7,1.3-3.3c4.9-2.1,8.1-6.9,8.1-12.2
			c0-5.1-7.5-16-13.3-23c-2.7,3.4-7.8,9.9-10.8,15.8c-0.6,1.2-2.1,1.7-3.4,1.1c-1.2-0.6-1.7-2.1-1.1-3.4c4.6-8.8,13-18.6,13.4-19
			c0.9-1.1,2.8-1.1,3.8,0c1.7,1.9,16.4,19.2,16.4,28.5c0,7.3-4.4,13.9-11.1,16.8C-488.6-852.2-488.9-852.1-489.2-852.1z"/>
	</g>
	<g class="st2">
		<path class="st14" d="M126.2,71.6C126.2,71.6,126.2,71.6,126.2,71.6c-2.2,0-4-1.8-4-4l0.1-20.7c0-2.2,1.8-4,4-4c0,0,0,0,0,0
			c2.2,0,4,1.8,4,4l-0.1,20.7C130.2,69.9,128.4,71.6,126.2,71.6z"/>
	</g>
	<g class="st2">
		<path class="st14" d="M169.5,89.3c-1,0-2.1-0.4-2.9-1.2c-1.5-1.6-1.5-4.1,0.1-5.7l11.1-10.9c1.6-1.5,4.1-1.5,5.7,0.1
			c1.5,1.6,1.5,4.1-0.1,5.7l-11.1,10.9C171.5,88.9,170.5,89.3,169.5,89.3z"/>
	</g>
	<g class="st2">
		<path class="st14" d="M208.4,132.5C208.4,132.5,208.4,132.5,208.4,132.5l-20.9-0.2c-2.2,0-4-1.8-4-4c0-2.2,1.8-4,4-4c0,0,0,0,0,0
			l20.8,0.2c2.2,0,4,1.8,4,4C212.4,130.7,210.6,132.5,208.4,132.5z"/>
	</g>
	<g class="st2">
		<path class="st14" d="M72.6,187.1c-1,0-2.1-0.4-2.8-1.2c-1.6-1.6-1.6-4.1,0-5.7l11.2-11.1c1.6-1.6,4.1-1.6,5.7,0
			c1.6,1.6,1.6,4.1,0,5.7l-11.2,11.1C74.6,186.7,73.6,187.1,72.6,187.1z"/>
	</g>
	<g class="st2">
		<path class="st14" d="M44.8,133c-2.2,0-4-1.8-4-4c0-2.2,1.8-4,4-4l20.9,0c0,0,0,0,0,0c2.2,0,4,1.8,4,4c0,2.2-1.8,4-4,4L44.8,133
			C44.8,133,44.8,133,44.8,133z"/>
	</g>
	<g class="st2">
		<path class="st14" d="M83.2,89.8c-1,0-2.1-0.4-2.8-1.2l-11-11c-1.6-1.6-1.6-4.1,0-5.7c1.6-1.6,4.1-1.6,5.7,0l11,11
			c1.6,1.6,1.6,4.1,0,5.7C85.3,89.4,84.3,89.8,83.2,89.8z"/>
	</g>
	<g class="st2">
		<path class="st14" d="M135.6,208.8H117c-7.1,0-12.9-5.8-12.9-12.9v-21c0-1.3-0.7-2.6-1.9-3.3c-16.8-9.5-26.4-28.2-24.5-47.4
			c2.3-23.2,21.6-42,44.9-43.8c13.8-1,26.9,3.6,36.9,12.9c9.9,9.2,15.6,22.3,15.6,35.8c0,2.2-1.8,4-4,4s-4-1.8-4-4
			c0-11.3-4.8-22.2-13.1-29.9c-8.4-7.8-19.4-11.6-30.9-10.8c-19.5,1.4-35.6,17.2-37.5,36.6c-1.6,16.1,6.5,31.7,20.5,39.7
			c3.7,2.1,6,6,6,10.2v21c0,2.7,2.2,4.9,4.9,4.9h18.6c2.2,0,4,1.8,4,4S137.8,208.8,135.6,208.8z"/>
	</g>
	<g class="st2">
		<path class="st14" d="M177.9,147.1l0.7,6.4l6.3,2.6l5.1-4c0.8-0.6,1.9-0.5,2.5,0.1l4.7,4.7c0.7,0.7,0.7,1.8,0.1,2.5l-4,5.1
			l2.6,6.3l6.4,0.7c1,0.1,1.7,0.9,1.7,1.9v6.6c0,1-0.7,1.8-1.7,1.9l-6.4,0.7l-2.6,6.3l4,5.1c0.6,0.8,0.5,1.9-0.1,2.5l-4.7,4.7
			c-0.7,0.7-1.8,0.7-2.5,0.1l-5.1-4l-6.3,2.6l-0.7,6.4c-0.1,1-0.9,1.7-1.9,1.7h-6.6c-1,0-1.8-0.7-1.9-1.7l-0.7-6.4l-6.3-2.6l-5.1,4
			c-0.8,0.6-1.9,0.5-2.5-0.1l-4.7-4.7c-0.7-0.7-0.7-1.8-0.1-2.5l4-5.1l-2.6-6.3l-6.4-0.7c-1-0.1-1.7-0.9-1.7-1.9v-6.6
			c0-1,0.7-1.8,1.7-1.9l6.4-0.7l2.6-6.3l-4-5.1c-0.6-0.8-0.5-1.9,0.1-2.5l4.7-4.7c0.7-0.7,1.8-0.7,2.5-0.1l5.1,4l6.3-2.6l0.7-6.4
			c0.1-1,0.9-1.7,1.9-1.7h6.6C177,145.4,177.8,146.2,177.9,147.1z M189.8,176.8c0-9.5-7.7-17.1-17.1-17.1c-9.5,0-17.1,7.7-17.1,17.1
			c0,9.5,7.7,17.1,17.1,17.1C182.1,194,189.8,186.3,189.8,176.8z"/>
	</g>
</g>
<g id="app_settings" class="st0">
	<g class="st2">
		<g>
			<path d="M-563.6,592.8h-43.1c-15.8,0-28.7-12.8-28.7-28.7v-43.1c0-15.8,12.8-28.7,28.7-28.7h43.1c15.8,0,28.7,12.8,28.7,28.7
				v43.1C-535,580-547.8,592.8-563.6,592.8z"/>
		</g>
		<g>
			<path class="st16" d="M-575.9,569.2h-18.8c-9.3,0-16.8-7.6-16.8-16.8v-18.8c0-9.3,7.6-16.8,16.8-16.8h18.8
				c9.3,0,16.8,7.6,16.8,16.8v18.8C-559.1,561.7-566.6,569.2-575.9,569.2z M-594.7,521.8c-6.5,0-11.8,5.3-11.8,11.8v18.8
				c0,6.5,5.3,11.8,11.8,11.8h18.8c6.5,0,11.8-5.3,11.8-11.8v-18.8c0-6.5-5.3-11.8-11.8-11.8H-594.7z"/>
		</g>
		<g>
			<path class="st16" d="M-564,528.3h-17.4c-1.3,0-2.3-1-2.3-2.3s1-2.3,2.3-2.3h17.4c1.3,0,2.3,1,2.3,2.3S-562.7,528.3-564,528.3z"
				/>
		</g>
		<g>
			<path class="st16" d="M-562.4,535.1h-19c-1.3,0-2.3-1-2.3-2.3s1-2.3,2.3-2.3h19c1.3,0,2.3,1,2.3,2.3S-561.1,535.1-562.4,535.1z"
				/>
		</g>
		<g>
			<path class="st16" d="M-562.4,541.9h-19c-1.3,0-2.3-1-2.3-2.3s1-2.3,2.3-2.3h19c1.3,0,2.3,1,2.3,2.3S-561.1,541.9-562.4,541.9z"
				/>
		</g>
		<g>
			<path class="st16" d="M-562.4,548.7h-19c-1.3,0-2.3-1-2.3-2.3s1-2.3,2.3-2.3h19c1.3,0,2.3,1,2.3,2.3S-561.1,548.7-562.4,548.7z"
				/>
		</g>
		<g>
			<path class="st16" d="M-562.4,555.5h-19c-1.3,0-2.3-1-2.3-2.3s1-2.3,2.3-2.3h19c1.3,0,2.3,1,2.3,2.3S-561.1,555.5-562.4,555.5z"
				/>
		</g>
		<g>
			<path class="st16" d="M-566.1,562.3h-15.3c-1.3,0-2.3-1-2.3-2.3s1-2.3,2.3-2.3h15.3c1.3,0,2.3,1,2.3,2.3
				S-564.8,562.3-566.1,562.3z"/>
		</g>
	</g>
	<g class="st2">
		<path d="M-1094.4-804.4h-43.1c-15.8,0-28.7-12.8-28.7-28.7v-43.1c0-15.8,12.8-28.7,28.7-28.7h43.1c15.8,0,28.7,12.8,28.7,28.7
			v43.1C-1065.7-817.2-1078.5-804.4-1094.4-804.4z"/>
	</g>
	<g class="st2">
		<path d="M-953-804.4h-43.1c-15.8,0-28.7-12.8-28.7-28.7v-43.1c0-15.8,12.8-28.7,28.7-28.7h43.1c15.8,0,28.7,12.8,28.7,28.7v43.1
			C-924.4-817.2-937.2-804.4-953-804.4z"/>
	</g>
	<g class="st2">
		<path class="st16" d="M-1104-829h-18.8c-9.3,0-16.8-7.6-16.8-16.8v-18.8c0-9.3,7.6-16.8,16.8-16.8h18.8c9.3,0,16.8,7.6,16.8,16.8
			v18.8C-1087.2-836.6-1094.7-829-1104-829z M-1122.8-876.4c-6.5,0-11.8,5.3-11.8,11.8v18.8c0,6.5,5.3,11.8,11.8,11.8h18.8
			c6.5,0,11.8-5.3,11.8-11.8v-18.8c0-6.5-5.3-11.8-11.8-11.8H-1122.8z"/>
	</g>
	<g class="st2">
		<path class="st16" d="M-1114.9-847.8c-0.6,0-1.3-0.2-1.8-0.7l-12.2-12.2c-1-1-1-2.6,0-3.5c1-1,2.6-1,3.5,0l10.5,10.5l27-27
			c1-1,2.6-1,3.5,0c1,1,1,2.6,0,3.5l-28.7,28.7C-1113.7-848.1-1114.3-847.8-1114.9-847.8z"/>
	</g>
	<g class="st2">
		<path class="st16" d="M-810-868.9h-17.4c-1.3,0-2.3-1-2.3-2.3s1-2.3,2.3-2.3h17.4c1.3,0,2.3,1,2.3,2.3S-808.7-868.9-810-868.9z"/>
	</g>
	<g class="st2">
		<path class="st16" d="M-812.3-855.3h-19c-1.3,0-2.3-1-2.3-2.3s1-2.3,2.3-2.3h19c1.3,0,2.3,1,2.3,2.3S-811-855.3-812.3-855.3z"/>
	</g>
	<g class="st2">
		<path class="st16" d="M-812.3-848.5h-19c-1.3,0-2.3-1-2.3-2.3s1-2.3,2.3-2.3h19c1.3,0,2.3,1,2.3,2.3S-811-848.5-812.3-848.5z"/>
	</g>
	<g class="st2">
		<path class="st16" d="M-812.3-841.7h-19c-1.3,0-2.3-1-2.3-2.3s1-2.3,2.3-2.3h19c1.3,0,2.3,1,2.3,2.3S-811-841.7-812.3-841.7z"/>
	</g>
	<g class="st2">
		<path class="st16" d="M-816-834.9h-15.3c-1.3,0-2.3-1-2.3-2.3s1-2.3,2.3-2.3h15.3c1.3,0,2.3,1,2.3,2.3S-814.7-834.9-816-834.9z"/>
	</g>
	<g class="st2">
		<path d="M-814.4-804.4h-43.1c-15.8,0-28.7-12.8-28.7-28.7v-43.1c0-15.8,12.8-28.7,28.7-28.7h43.1c15.8,0,28.7,12.8,28.7,28.7v43.1
			C-785.7-817.2-798.5-804.4-814.4-804.4z"/>
	</g>
	<g class="st2">
		<path class="st14" d="M-830.7-824.3h-18.8c-1.4,0-2.5-1.1-2.5-2.5s1.1-2.5,2.5-2.5h18.8c4.8,0,8.9-2.9,10.8-7l-11.6-11.4l-5.7,5.7
			c-1,1-2.6,1-3.5,0l-9.3-9.3l-11.9,11.9c-0.7,0.7-1.8,0.9-2.7,0.5c-0.9-0.4-1.5-1.3-1.5-2.3v-18.8c0-9.3,7.6-16.8,16.8-16.8h18.8
			c9.3,0,16.8,7.6,16.8,16.8v18.8C-813.9-831.8-821.4-824.3-830.7-824.3z M-831.6-853.7c0.6,0,1.3,0.2,1.8,0.7l10.9,10.8v-17.6
			c0-6.5-5.3-11.8-11.8-11.8h-18.8c-6.5,0-11.8,5.3-11.8,11.8v12.7l9.4-9.4c1-1,2.6-1,3.5,0l9.3,9.3l5.7-5.7
			C-832.8-853.5-832.2-853.7-831.6-853.7z"/>
	</g>
	<g class="st2">
		<path class="st14" d="M-808.8-842.4c-0.5,0-1-0.2-1.5-0.5c-1.1-0.8-1.4-2.4-0.5-3.5c1.5-2,2.3-4.4,2.3-7v-18.8
			c0-6.5-5.3-11.8-11.8-11.8h-18.8c-3.3,0-6.5,1.4-8.7,3.8c-0.9,1-2.5,1.1-3.5,0.2c-1-0.9-1.1-2.5-0.2-3.5c3.2-3.5,7.7-5.5,12.4-5.5
			h18.8c9.3,0,16.8,7.6,16.8,16.8v18.8c0,3.6-1.1,7-3.2,9.9C-807.2-842.8-808-842.4-808.8-842.4z"/>
	</g>
	<g class="st2">
		<circle class="st10" cx="-831.3" cy="-862.7" r="3.9"/>
	</g>
	<g class="st2">
		<g>
			<path d="M-954-808.6h-43.1c-15.8,0-28.7-12.8-28.7-28.7v-43.1c0-15.8,12.8-28.7,28.7-28.7h43.1c15.8,0,28.7,12.8,28.7,28.7v43.1
				C-925.3-821.4-938.1-808.6-954-808.6z"/>
		</g>
		<g>
			<path class="st16" d="M-966.3-832.2H-985c-9.3,0-16.8-7.6-16.8-16.8v-18.8c0-9.3,7.6-16.8,16.8-16.8h18.8
				c9.3,0,16.8,7.6,16.8,16.8v18.8C-949.4-839.8-957-832.2-966.3-832.2z M-985-879.6c-6.5,0-11.8,5.3-11.8,11.8v18.8
				c0,6.5,5.3,11.8,11.8,11.8h18.8c6.5,0,11.8-5.3,11.8-11.8v-18.8c0-6.5-5.3-11.8-11.8-11.8H-985z"/>
		</g>
		<g>
			<path class="st16" d="M-954.3-873.1h-17.4c-1.3,0-2.3-1-2.3-2.3s1-2.3,2.3-2.3h17.4c1.3,0,2.3,1,2.3,2.3S-953-873.1-954.3-873.1z
				"/>
		</g>
		<g>
			<path class="st16" d="M-952.8-866.3h-19c-1.3,0-2.3-1-2.3-2.3s1-2.3,2.3-2.3h19c1.3,0,2.3,1,2.3,2.3S-951.5-866.3-952.8-866.3z"
				/>
		</g>
		<g>
			<path class="st16" d="M-952.8-859.5h-19c-1.3,0-2.3-1-2.3-2.3s1-2.3,2.3-2.3h19c1.3,0,2.3,1,2.3,2.3S-951.5-859.5-952.8-859.5z"
				/>
		</g>
		<g>
			<path class="st16" d="M-952.8-852.7h-19c-1.3,0-2.3-1-2.3-2.3s1-2.3,2.3-2.3h19c1.3,0,2.3,1,2.3,2.3S-951.5-852.7-952.8-852.7z"
				/>
		</g>
		<g>
			<path class="st16" d="M-952.8-845.9h-19c-1.3,0-2.3-1-2.3-2.3s1-2.3,2.3-2.3h19c1.3,0,2.3,1,2.3,2.3S-951.5-845.9-952.8-845.9z"
				/>
		</g>
		<g>
			<path class="st16" d="M-956.5-839.1h-15.3c-1.3,0-2.3-1-2.3-2.3s1-2.3,2.3-2.3h15.3c1.3,0,2.3,1,2.3,2.3
				S-955.2-839.1-956.5-839.1z"/>
		</g>
	</g>
	<g class="st2">
		<g>
			<path d="M-664.9-803.5H-708c-15.8,0-28.7-12.8-28.7-28.7v-43.1c0-15.8,12.8-28.7,28.7-28.7h43.1c15.8,0,28.7,12.8,28.7,28.7v43.1
				C-636.3-816.4-649.1-803.5-664.9-803.5z"/>
		</g>
		<g>
			<path class="st14" d="M-685.3-820.3H-704c-1.4,0-2.5-1.1-2.5-2.5s1.1-2.5,2.5-2.5h18.8c4.8,0,8.9-2.9,10.8-7l-11.6-11.4l-5.7,5.7
				c-1,1-2.6,1-3.5,0l-9.3-9.3l-11.9,11.9c-0.7,0.7-1.8,0.9-2.7,0.5c-0.9-0.4-1.5-1.3-1.5-2.3v-18.8c0-9.3,7.6-16.8,16.8-16.8h18.8
				c9.3,0,16.8,7.6,16.8,16.8v18.8C-668.4-827.9-676-820.3-685.3-820.3z M-686.1-849.7c0.6,0,1.3,0.2,1.8,0.7l10.9,10.8v-17.6
				c0-6.5-5.3-11.8-11.8-11.8H-704c-6.5,0-11.8,5.3-11.8,11.8v12.7l9.4-9.4c1-1,2.6-1,3.5,0l9.3,9.3l5.7-5.7
				C-687.4-849.5-686.7-849.7-686.1-849.7z"/>
		</g>
		<g>
			<circle class="st10" cx="-685.9" cy="-858.7" r="3.9"/>
		</g>
		<g>
			<path class="st14" d="M-662.4-848.4c-1.1,0-2-0.7-2.4-1.7c-0.4-1.3,0.3-2.7,1.6-3.1c7.5-2.4,12.6-9.3,12.6-17.2
				c0-9.9-8.1-18-18-18c-7.4,0-14.2,4.6-16.8,11.6c-0.5,1.3-1.9,1.9-3.2,1.4c-1.3-0.5-1.9-1.9-1.4-3.2c3.4-8.8,12-14.8,21.5-14.8
				c12.7,0,23,10.3,23,23c0,10.1-6.4,18.9-16,21.9C-661.9-848.4-662.2-848.4-662.4-848.4z"/>
		</g>
		<g>
			<path class="st14" d="M-668.7-868c-0.6,0-1.3-0.2-1.8-0.7c-1-1-1-2.6,0-3.5l9.3-9.3c1-1,2.6-1,3.5,0c1,1,1,2.6,0,3.5l-9.3,9.3
				C-667.4-868.2-668-868-668.7-868z"/>
		</g>
	</g>
	<g class="st2">
		<path d="M-492.1-805.7h-43.1c-15.8,0-28.7-12.8-28.7-28.7v-43.1c0-15.8,12.8-28.7,28.7-28.7h43.1c15.8,0,28.7,12.8,28.7,28.7v43.1
			C-463.5-818.6-476.3-805.7-492.1-805.7z"/>
	</g>
	<g class="st2">
		<path class="st14" d="M-512.2-820.3H-531c-1.4,0-2.5-1.1-2.5-2.5s1.1-2.5,2.5-2.5h18.8c4.8,0,8.9-2.9,10.8-7l-11.6-11.4l-5.7,5.7
			c-1,1-2.6,1-3.5,0l-9.3-9.3l-11.9,11.9c-0.7,0.7-1.8,0.9-2.7,0.5c-0.9-0.4-1.5-1.3-1.5-2.3v-18.8c0-9.3,7.6-16.8,16.8-16.8h18.8
			c9.3,0,16.8,7.6,16.8,16.8v18.8C-495.4-827.9-502.9-820.3-512.2-820.3z M-513-849.7c0.6,0,1.3,0.2,1.8,0.7l10.9,10.8v-17.6
			c0-6.5-5.3-11.8-11.8-11.8H-531c-6.5,0-11.8,5.3-11.8,11.8v12.7l9.4-9.4c1-1,2.6-1,3.5,0l9.3,9.3l5.7-5.7
			C-514.3-849.5-513.7-849.7-513-849.7z"/>
	</g>
	<g class="st2">
		<circle class="st10" cx="-512.8" cy="-858.7" r="3.9"/>
	</g>
	<g class="st2">
		<circle class="st14" cx="-490.4" cy="-867.2" r="4.7"/>
	</g>
	<g class="st2">
		<path class="st14" d="M-489.2-852.1c-1,0-1.9-0.6-2.3-1.5c-0.5-1.3,0.1-2.7,1.3-3.3c4.9-2.1,8.1-6.9,8.1-12.2
			c0-5.1-7.5-16-13.3-23c-2.7,3.4-7.8,9.9-10.8,15.8c-0.6,1.2-2.1,1.7-3.4,1.1c-1.2-0.6-1.7-2.1-1.1-3.4c4.6-8.8,13-18.6,13.4-19
			c0.9-1.1,2.8-1.1,3.8,0c1.7,1.9,16.4,19.2,16.4,28.5c0,7.3-4.4,13.9-11.1,16.8C-488.6-852.2-488.9-852.1-489.2-852.1z"/>
	</g>
	<g class="st2">
		<path class="st14" d="M185.8,152.7l0.7,6.4l6.3,2.6l5.1-4c0.8-0.6,1.9-0.5,2.5,0.1l4.7,4.7c0.7,0.7,0.7,1.8,0.1,2.5l-4,5.1
			l2.6,6.3l6.4,0.7c1,0.1,1.7,0.9,1.7,1.9v6.6c0,1-0.7,1.8-1.7,1.9l-6.4,0.7l-2.6,6.3l4,5.1c0.6,0.8,0.5,1.9-0.1,2.5l-4.7,4.7
			c-0.7,0.7-1.8,0.7-2.5,0.1l-5.1-4l-6.3,2.6l-0.7,6.4c-0.1,1-0.9,1.7-1.9,1.7h-6.6c-1,0-1.8-0.7-1.9-1.7l-0.7-6.4l-6.3-2.6l-5.1,4
			c-0.8,0.6-1.9,0.5-2.5-0.1l-4.7-4.7c-0.7-0.7-0.7-1.8-0.1-2.5l4-5.1l-2.6-6.3l-6.4-0.7c-1-0.1-1.7-0.9-1.7-1.9v-6.6
			c0-1,0.7-1.8,1.7-1.9l6.4-0.7l2.6-6.3l-4-5.1c-0.6-0.8-0.5-1.9,0.1-2.5l4.7-4.7c0.7-0.7,1.8-0.7,2.5-0.1l5.1,4l6.3-2.6l0.7-6.4
			c0.1-1,0.9-1.7,1.9-1.7h6.6C184.9,151,185.7,151.7,185.8,152.7z M197.7,182.4c0-9.5-7.7-17.1-17.1-17.1s-17.1,7.7-17.1,17.1
			c0,9.5,7.7,17.1,17.1,17.1S197.7,191.9,197.7,182.4z"/>
	</g>
	<g class="st2">
		<path class="st14" d="M92.3,215.2c-8.4,0-15.3-6.8-15.3-15.2V53.4c0-8.4,6.8-15.2,15.2-15.2h76.7c8.4,0,15.2,6.8,15.2,15.2v86.9
			c0,2.2-1.8,4-4,4s-4-1.8-4-4V53.4c0-4-3.2-7.2-7.2-7.2H92.2c-4,0-7.2,3.2-7.2,7.2V200c0,4,3.2,7.2,7.2,7.2l59.2-0.7
			c2.2,0,4,1.7,4,4c0,2.2-1.7,4-4,4L92.3,215.2z"/>
	</g>
	<g class="st2">
		<rect x="82.5" y="55.1" class="st14" width="96.1" height="8"/>
	</g>
	<g class="st2">
		<path class="st14" d="M139.2,186.4H82.5c-2.2,0-4-1.8-4-4s1.8-4,4-4h56.6c2.2,0,4,1.8,4,4S141.4,186.4,139.2,186.4z"/>
	</g>
	<g class="st2">
		<circle class="st14" cx="130.6" cy="196.3" r="6.4"/>
	</g>
</g>
<g id="new_project" class="st0">
	<g class="st2">
		<path class="st14" d="M191.3,234.8c-22.2,0-40.3-18.1-40.3-40.3s18.1-40.3,40.3-40.3c22.2,0,40.3,18.1,40.3,40.3
			S213.6,234.8,191.3,234.8z M191.3,162.2c-17.8,0-32.3,14.5-32.3,32.3s14.5,32.3,32.3,32.3c17.8,0,32.3-14.5,32.3-32.3
			S209.1,162.2,191.3,162.2z"/>
	</g>
	<g class="st2">
		<path class="st14" d="M209.1,198.5h-35.4c-2.2,0-4-1.8-4-4s1.8-4,4-4h35.4c2.2,0,4,1.8,4,4S211.3,198.5,209.1,198.5z"/>
	</g>
	<g class="st2">
		<path class="st14" d="M191.3,216.2c-2.2,0-4-1.8-4-4v-35.4c0-2.2,1.8-4,4-4s4,1.8,4,4v35.4C195.3,214.4,193.6,216.2,191.3,216.2z"
			/>
	</g>
	<g class="st2">
		<path class="st14" d="M87.5,84.4H61.1c-1.6,0-3.1-1-3.7-2.5s-0.3-3.2,0.9-4.4l38.8-38.8c1.1-1.1,2.9-1.5,4.4-0.9
			c1.5,0.6,2.5,2.1,2.5,3.7V68C103.9,77.1,96.5,84.4,87.5,84.4z M70.8,76.4h16.7c4.7,0,8.4-3.8,8.4-8.4V51.3L70.8,76.4z"/>
	</g>
	<g class="st2">
		<path class="st14" d="M142.7,212.9H73.6c-9.1,0-16.4-7.4-16.4-16.4v-116c0-1.1,0.4-2.1,1.2-2.8l38.8-38.8c0.8-0.8,1.8-1.2,2.8-1.2
			H179c9.1,0,16.4,7.4,16.4,16.4v87.6c0,2.2-1.8,4-4,4s-4-1.8-4-4V54.1c0-4.7-3.8-8.4-8.4-8.4h-77.4L65.1,82.1v114.4
			c0,4.7,3.8,8.4,8.4,8.4h69.1c2.2,0,4,1.8,4,4S144.9,212.9,142.7,212.9z"/>
	</g>
	<g class="st2">
		<path class="st14" d="M136.4,169.4h-16c-4.2,0-7.7-3.4-7.7-7.7v-15.1c-10.9-6-17.4-17.8-16.7-30.4c1-16.5,14.8-29.9,31.4-30.4
			c8.8-0.3,17.2,3,23.6,9.1c6.3,6.2,9.8,14.4,9.8,23.3c0,11.9-6.4,22.7-16.7,28.4v15C144.1,165.9,140.7,169.4,136.4,169.4z
			 M120.7,161.4h15.4v-16.2c0-2.1,1.2-4,3.1-5c8.4-4.2,13.6-12.5,13.6-21.9c0-6.7-2.6-12.9-7.4-17.5c-4.8-4.6-11.1-7.1-17.8-6.9
			c-12.5,0.4-22.9,10.4-23.6,22.9c-0.6,9.9,4.7,19.1,13.6,23.4c1.9,1,3.1,2.9,3.1,5V161.4z"/>
	</g>
	<g class="st2">
		<path class="st14" d="M139.6,148.8h-22c-2.2,0-4-1.8-4-4s1.8-4,4-4h22c2.2,0,4,1.8,4,4S141.8,148.8,139.6,148.8z"/>
	</g>
</g>
<g id="generic_project" class="st0">
	<g class="st2">
		<path class="st14" d="M87.5,84.4H61.1c-1.6,0-3.1-1-3.7-2.5s-0.3-3.2,0.9-4.4l38.8-38.8c1.1-1.1,2.9-1.5,4.4-0.9
			c1.5,0.6,2.5,2.1,2.5,3.7V68C103.9,77.1,96.5,84.4,87.5,84.4z M70.8,76.4h16.7c4.7,0,8.4-3.8,8.4-8.4V51.3L70.8,76.4z"/>
	</g>
	<g class="st2">
		<path class="st14" d="M178.5,212.9H73.6c-9.1,0-16.4-7.4-16.4-16.4v-116c0-1.1,0.4-2.1,1.2-2.8l38.8-38.8c0.8-0.8,1.8-1.2,2.8-1.2
			H179c9.1,0,16.4,7.4,16.4,16.4V196C195.4,205.3,187.8,212.9,178.5,212.9z M65.1,82.1v114.4c0,4.7,3.8,8.4,8.4,8.4h104.9
			c4.9,0,9-4,9-9V54.1c0-4.7-3.8-8.4-8.4-8.4h-77.4L65.1,82.1z"/>
	</g>
	<g class="st2">
		<path class="st14" d="M136.4,169.4h-16c-4.2,0-7.7-3.4-7.7-7.7v-15.1c-10.9-6-17.4-17.8-16.7-30.4c1-16.5,14.8-29.9,31.4-30.4
			c8.8-0.3,17.2,3,23.6,9.1c6.3,6.2,9.8,14.4,9.8,23.3c0,11.9-6.4,22.7-16.7,28.4v15C144.1,165.9,140.7,169.4,136.4,169.4z
			 M120.7,161.4h15.4v-16.2c0-2.1,1.2-4,3.1-5c8.4-4.2,13.6-12.5,13.6-21.9c0-6.7-2.6-12.9-7.4-17.5c-4.8-4.6-11.1-7.1-17.8-6.9
			c-12.5,0.4-22.9,10.4-23.6,22.9c-0.6,9.9,4.7,19.1,13.6,23.4c1.9,1,3.1,2.9,3.1,5V161.4z"/>
	</g>
	<g class="st2">
		<path class="st14" d="M139.6,148.8h-22c-2.2,0-4-1.8-4-4s1.8-4,4-4h22c2.2,0,4,1.8,4,4S141.8,148.8,139.6,148.8z"/>
	</g>
</g>
<g id="save_project" class="st0">
	<g class="st2">
		<path class="st14" d="M191.3,234.8c-22.2,0-40.3-18.1-40.3-40.3s18.1-40.3,40.3-40.3c22.2,0,40.3,18.1,40.3,40.3
			S213.6,234.8,191.3,234.8z M191.3,162.2c-17.8,0-32.3,14.5-32.3,32.3s14.5,32.3,32.3,32.3c17.8,0,32.3-14.5,32.3-32.3
			S209.1,162.2,191.3,162.2z"/>
	</g>
	<g class="st2">
		<path class="st14" d="M191.3,216.2c-2.2,0-4-1.8-4-4v-35.4c0-2.2,1.8-4,4-4s4,1.8,4,4v35.4C195.3,214.4,193.6,216.2,191.3,216.2z"
			/>
	</g>
	<g class="st2">
		<path class="st14" d="M87.5,84.4H61.1c-1.6,0-3.1-1-3.7-2.5s-0.3-3.2,0.9-4.4l38.8-38.8c1.1-1.1,2.9-1.5,4.4-0.9
			c1.5,0.6,2.5,2.1,2.5,3.7V68C103.9,77.1,96.5,84.4,87.5,84.4z M70.8,76.4h16.7c4.7,0,8.4-3.8,8.4-8.4V51.3L70.8,76.4z"/>
	</g>
	<g class="st2">
		<path class="st14" d="M142.7,212.9H73.6c-9.1,0-16.4-7.4-16.4-16.4v-116c0-1.1,0.4-2.1,1.2-2.8l38.8-38.8c0.8-0.8,1.8-1.2,2.8-1.2
			H179c9.1,0,16.4,7.4,16.4,16.4v87.6c0,2.2-1.8,4-4,4s-4-1.8-4-4V54.1c0-4.7-3.8-8.4-8.4-8.4h-77.4L65.1,82.1v114.4
			c0,4.7,3.8,8.4,8.4,8.4h69.1c2.2,0,4,1.8,4,4S144.9,212.9,142.7,212.9z"/>
	</g>
	<g class="st2">
		<path class="st14" d="M136.4,169.4h-16c-4.2,0-7.7-3.4-7.7-7.7v-15.1c-10.9-6-17.4-17.8-16.7-30.4c1-16.5,14.8-29.9,31.4-30.4
			c8.8-0.3,17.2,3,23.6,9.1c6.3,6.2,9.8,14.4,9.8,23.3c0,11.9-6.4,22.7-16.7,28.4v15C144.1,165.9,140.7,169.4,136.4,169.4z
			 M120.7,161.4h15.4v-16.2c0-2.1,1.2-4,3.1-5c8.4-4.2,13.6-12.5,13.6-21.9c0-6.7-2.6-12.9-7.4-17.5c-4.8-4.6-11.1-7.1-17.8-6.9
			c-12.5,0.4-22.9,10.4-23.6,22.9c-0.6,9.9,4.7,19.1,13.6,23.4c1.9,1,3.1,2.9,3.1,5V161.4z"/>
	</g>
	<g class="st2">
		<path class="st14" d="M139.6,148.8h-22c-2.2,0-4-1.8-4-4s1.8-4,4-4h22c2.2,0,4,1.8,4,4S141.8,148.8,139.6,148.8z"/>
	</g>
	<g class="st2">
		<path class="st14" d="M191.7,216.2c-1,0-2-0.4-2.8-1.2l-17.7-17.7c-1.6-1.6-1.6-4.1,0-5.7c1.6-1.6,4.1-1.6,5.7,0l14.9,14.9
			l14.9-14.9c1.6-1.6,4.1-1.6,5.7,0c1.6,1.6,1.6,4.1,0,5.7l-17.7,17.7C193.7,215.8,192.7,216.2,191.7,216.2z"/>
	</g>
</g>
<g id="load_project" class="st0">
	<g class="st2">
		<path class="st14" d="M191.3,234.8c-22.2,0-40.3-18.1-40.3-40.3s18.1-40.3,40.3-40.3c22.2,0,40.3,18.1,40.3,40.3
			S213.6,234.8,191.3,234.8z M191.3,162.2c-17.8,0-32.3,14.5-32.3,32.3s14.5,32.3,32.3,32.3c17.8,0,32.3-14.5,32.3-32.3
			S209.1,162.2,191.3,162.2z"/>
	</g>
	<g class="st2">
		<path class="st14" d="M192,216.2c-2.2,0-4-1.8-4-4v-35.4c0-2.2,1.8-4,4-4s4,1.8,4,4v35.4C196,214.4,194.2,216.2,192,216.2z"/>
	</g>
	<g class="st2">
		<path class="st14" d="M87.5,84.4H61.1c-1.6,0-3.1-1-3.7-2.5s-0.3-3.2,0.9-4.4l38.8-38.8c1.1-1.1,2.9-1.5,4.4-0.9
			c1.5,0.6,2.5,2.1,2.5,3.7V68C103.9,77.1,96.5,84.4,87.5,84.4z M70.8,76.4h16.7c4.7,0,8.4-3.8,8.4-8.4V51.3L70.8,76.4z"/>
	</g>
	<g class="st2">
		<path class="st14" d="M142.7,212.9H73.6c-9.1,0-16.4-7.4-16.4-16.4v-116c0-1.1,0.4-2.1,1.2-2.8l38.8-38.8c0.8-0.8,1.8-1.2,2.8-1.2
			H179c9.1,0,16.4,7.4,16.4,16.4v87.6c0,2.2-1.8,4-4,4s-4-1.8-4-4V54.1c0-4.7-3.8-8.4-8.4-8.4h-77.4L65.1,82.1v114.4
			c0,4.7,3.8,8.4,8.4,8.4h69.1c2.2,0,4,1.8,4,4S144.9,212.9,142.7,212.9z"/>
	</g>
	<g class="st2">
		<path class="st14" d="M136.4,169.4h-16c-4.2,0-7.7-3.4-7.7-7.7v-15.1c-10.9-6-17.4-17.8-16.7-30.4c1-16.5,14.8-29.9,31.4-30.4
			c8.8-0.3,17.2,3,23.6,9.1c6.3,6.2,9.8,14.4,9.8,23.3c0,11.9-6.4,22.7-16.7,28.4v15C144.1,165.9,140.7,169.4,136.4,169.4z
			 M120.7,161.4h15.4v-16.2c0-2.1,1.2-4,3.1-5c8.4-4.2,13.6-12.5,13.6-21.9c0-6.7-2.6-12.9-7.4-17.5c-4.8-4.6-11.1-7.1-17.8-6.9
			c-12.5,0.4-22.9,10.4-23.6,22.9c-0.6,9.9,4.7,19.1,13.6,23.4c1.9,1,3.1,2.9,3.1,5V161.4z"/>
	</g>
	<g class="st2">
		<path class="st14" d="M139.6,148.8h-22c-2.2,0-4-1.8-4-4s1.8-4,4-4h22c2.2,0,4,1.8,4,4S141.8,148.8,139.6,148.8z"/>
	</g>
	<g class="st2">
		<path class="st14" d="M209.3,198.5c-1,0-2-0.4-2.8-1.2l-14.9-14.9l-14.9,14.9c-1.6,1.6-4.1,1.6-5.7,0c-1.6-1.6-1.6-4.1,0-5.7
			l17.7-17.7c1.6-1.6,4.1-1.6,5.7,0l17.7,17.7c1.6,1.6,1.6,4.1,0,5.7C211.4,198.1,210.4,198.5,209.3,198.5z"/>
	</g>
</g>
<g id="dmx" class="st0">
	<g class="st2">
		<g>
			<path class="st14" d="M76.3,152.2H59.9v-48.9h16.5c4.2,0,7.7,0.4,10.4,1.3c2.7,0.9,4.9,2.4,6.4,4.4c1.5,2,2.6,4.4,3.1,7.2
				c0.6,2.8,0.9,6.3,0.9,10.8c0,4.4-0.3,8.1-0.8,11c-0.5,2.9-1.5,5.5-3,7.8c-1.5,2.3-3.6,3.9-6.4,5
				C84.2,151.7,80.7,152.2,76.3,152.2z M86.8,132.8c0.1-1.5,0.1-3.7,0.1-6.4c0-2.7-0.1-4.9-0.3-6.5c-0.2-1.6-0.6-3.1-1.4-4.5
				c-0.7-1.3-1.8-2.3-3.2-2.8c-1.4-0.5-3.3-0.8-5.7-0.8h-6.5v31.7h6.5c3.6,0,6.2-0.9,7.8-2.7C85.6,139.4,86.4,136.7,86.8,132.8z"/>
		</g>
		<g>
			<path class="st14" d="M104.1,152.2v-48.9H121l8.6,35.7l8.6-35.7h16.9v48.9h-9.9v-37.9h-1.1l-9.6,35.7h-9.9l-9.6-35.7h-1.1v37.9
				H104.1z"/>
		</g>
		<g>
			<path class="st14" d="M171.1,103.3l9.1,18l9.3-18h10.3l-14.1,25l14.1,24h-11l-9.1-16.9l-9.3,16.9h-10.3l14.1-23.5l-14.1-25.5
				H171.1z"/>
		</g>
	</g>
	<g class="st2">
		<path class="st14" d="M211.6,176H47.9c-7,0-12.6-5.7-12.6-12.6V92.1c0-7,5.7-12.6,12.6-12.6h163.7c7,0,12.6,5.7,12.6,12.6v71.2
			C224.3,170.3,218.6,176,211.6,176z M47.9,87.5c-2.6,0-4.6,2.1-4.6,4.6v71.2c0,2.6,2.1,4.6,4.6,4.6h163.7c2.6,0,4.6-2.1,4.6-4.6
			V92.1c0-2.6-2.1-4.6-4.6-4.6H47.9z"/>
	</g>
</g>
<g id="alignment_x3F_" class="st0">
	<g class="st2">
		<g>
			<path class="st17" d="M94.3,223.2c-1.1,0-2-0.9-2-2v-188c0-1.1,0.9-2,2-2s2,0.9,2,2v188C96.3,222.3,95.4,223.2,94.3,223.2z"/>
		</g>
		<g>
			<path class="st17" d="M162.1,223.2c-1.1,0-2-0.9-2-2v-188c0-1.1,0.9-2,2-2s2,0.9,2,2v188C164.1,222.3,163.2,223.2,162.1,223.2z"
				/>
		</g>
		<g>
			<path class="st17" d="M103.6,95.2H34.2c-1.1,0-2-0.9-2-2s0.9-2,2-2h69.4c1.1,0,2,0.9,2,2S104.7,95.2,103.6,95.2z"/>
		</g>
		<g>
			<path class="st17" d="M221.8,95.2h-68.5c-1.1,0-2-0.9-2-2s0.9-2,2-2h68.5c1.1,0,2,0.9,2,2S222.9,95.2,221.8,95.2z"/>
		</g>
		<g>
			<path class="st17" d="M103.6,170.6H34.2c-1.1,0-2-0.9-2-2s0.9-2,2-2h69.4c1.1,0,2,0.9,2,2S104.7,170.6,103.6,170.6z"/>
		</g>
		<g>
			<path class="st17" d="M221.8,170.6h-68.5c-1.1,0-2-0.9-2-2s0.9-2,2-2h68.5c1.1,0,2,0.9,2,2S222.9,170.6,221.8,170.6z"/>
		</g>
	</g>
	<g class="st2">
		<path class="st14" d="M129.4,189.7h-2.8c-7.5,0-13.6-6.1-13.6-13.6V78.9c0-7.5,6.1-13.6,13.6-13.6h2.8c7.5,0,13.6,6.1,13.6,13.6
			v97.2C143,183.6,136.9,189.7,129.4,189.7z M126.6,73.4c-3.1,0-5.6,2.5-5.6,5.6v97.2c0,3.1,2.5,5.6,5.6,5.6h2.8
			c3.1,0,5.6-2.5,5.6-5.6V78.9c0-3.1-2.5-5.6-5.6-5.6H126.6z"/>
	</g>
</g>
<g id="alignment_x3F__copy" class="st0">
	<g class="st2">
		<path class="st14" d="M176.8,177.6H79.6c-7.5,0-13.6-6.1-13.6-13.6v-2.8c0-7.5,6.1-13.6,13.6-13.6h97.2c7.5,0,13.6,6.1,13.6,13.6
			v2.8C190.3,171.5,184.3,177.6,176.8,177.6z M79.6,155.6c-3.1,0-5.6,2.5-5.6,5.6v2.8c0,3.1,2.5,5.6,5.6,5.6h97.2
			c3.1,0,5.6-2.5,5.6-5.6v-2.8c0-3.1-2.5-5.6-5.6-5.6H79.6z"/>
	</g>
	<g class="st2">
		<path class="st14" d="M211.9,109.8H44.5c-7.5,0-13.6-6.1-13.6-13.6v-2.9c0-7.5,6.1-13.6,13.6-13.6h167.4c7.5,0,13.6,6.1,13.6,13.6
			v2.9C225.5,103.7,219.4,109.8,211.9,109.8z M44.5,87.8c-3.1,0-5.6,2.5-5.6,5.6v2.9c0,3.1,2.5,5.6,5.6,5.6h167.4
			c3.1,0,5.6-2.5,5.6-5.6v-2.9c0-3.1-2.5-5.6-5.6-5.6H44.5z"/>
	</g>
</g>
<g id="wifi" class="st0">
	<g class="st2">
		<circle class="st14" cx="131.3" cy="176.9" r="14.8"/>
	</g>
	<g class="st2">
		<path class="st14" d="M158.9,153.4c-1,0-2-0.4-2.8-1.2c-13.7-13.6-35.9-13.7-49.5,0c-1.6,1.6-4.1,1.6-5.7,0
			c-1.6-1.6-1.6-4.1,0-5.7c16.8-16.8,44.1-16.8,60.8,0c1.6,1.6,1.6,4.1,0,5.7C160.9,153,159.9,153.4,158.9,153.4z"/>
	</g>
	<g class="st2">
		<path class="st14" d="M180.2,132.1c-1,0-2-0.4-2.8-1.2c-25.4-25.4-66.7-25.4-92.1,0c-1.6,1.6-4.1,1.6-5.7,0
			c-1.6-1.6-1.6-4.1,0-5.7c28.5-28.5,74.9-28.5,103.4,0c1.6,1.6,1.6,4.1,0,5.7C182.2,131.7,181.2,132.1,180.2,132.1z"/>
	</g>
	<g class="st2">
		<path class="st14" d="M201.8,110.4c-1,0-2-0.4-2.8-1.2c-37.3-37.3-98.1-37.3-135.4,0c-1.6,1.6-4.1,1.6-5.7,0
			c-1.6-1.6-1.6-4.1,0-5.7c40.4-40.4,106.3-40.4,146.7,0c1.6,1.6,1.6,4.1,0,5.7C203.9,110,202.8,110.4,201.8,110.4z"/>
	</g>
</g>
</svg>
