<?xml version="1.0" encoding="utf-8"?>
<!-- Generator: Adobe Illustrator 25.0.0, SVG Export Plug-In . SVG Version: 6.00 Build 0)  -->
<svg version="1.1" xmlns="http://www.w3.org/2000/svg" xmlns:xlink="http://www.w3.org/1999/xlink" x="0px" y="0px"
	 viewBox="0 0 256 256" style="enable-background:new 0 0 256 256;" xml:space="preserve">
<style type="text/css">
	.st0{display:none;}
	.st1{display:inline;stroke:#000000;stroke-miterlimit:10;}
	.st2{display:inline;}
	.st3{fill:none;stroke:#00FF00;stroke-width:5;stroke-linecap:round;stroke-linejoin:round;stroke-miterlimit:10;}
	.st4{fill:none;stroke:#00FF00;stroke-width:4.6599;stroke-linecap:round;stroke-linejoin:round;stroke-miterlimit:10;}
	.st5{display:inline;fill:none;stroke:#00FF00;stroke-width:5;stroke-linecap:round;stroke-linejoin:round;stroke-miterlimit:10;}
	
		.st6{display:inline;fill:none;stroke:#00FF00;stroke-width:4.6599;stroke-linecap:round;stroke-linejoin:round;stroke-miterlimit:10;}
	.st7{display:inline;fill:none;stroke:#FFFFFF;stroke-width:5;stroke-linecap:round;stroke-linejoin:round;stroke-miterlimit:10;}
	.st8{display:inline;fill:#FFFF00;}
	.st9{fill:none;stroke:#FFFFFF;stroke-width:5;stroke-linecap:round;stroke-linejoin:round;stroke-miterlimit:10;}
	.st10{fill:#FFFF00;}
	.st11{display:inline;fill:#FFFFFF;}
	
		.st12{display:inline;fill:none;stroke:#FFFFFF;stroke-width:4.9703;stroke-linecap:round;stroke-linejoin:round;stroke-miterlimit:10;}
	.st13{display:inline;fill:none;stroke:#FFFFFF;stroke-width:8;stroke-linecap:round;stroke-linejoin:round;stroke-miterlimit:10;}
	.st14{fill:#FFFFFF;}
	.st15{display:inline;fill:none;stroke:#FFFFFF;stroke-width:8;stroke-miterlimit:10;}
	.st16{clip-path:url(#SVGID_2_);}
	.st17{display:inline;fill:none;stroke:#FFFFFF;stroke-width:4;stroke-linecap:round;stroke-linejoin:round;stroke-miterlimit:10;}
	.st18{fill:none;stroke:#FFFFFF;stroke-width:4;stroke-linecap:round;stroke-linejoin:round;stroke-miterlimit:10;}
	.st19{fill:none;stroke:#FFFFFF;stroke-width:8;stroke-miterlimit:10;}
	.st20{fill:none;stroke:#787878;stroke-width:8;stroke-linecap:round;stroke-linejoin:round;stroke-miterlimit:10;}
	.st21{fill:none;stroke:#808080;stroke-width:8;stroke-linecap:round;stroke-linejoin:round;stroke-miterlimit:10;}
	.st22{display:inline;fill:none;stroke:#A1A1A1;stroke-width:8;stroke-linecap:round;stroke-linejoin:round;stroke-miterlimit:10;}
	.st23{display:inline;fill:none;stroke:#FFFFFF;stroke-width:8;stroke-linecap:square;stroke-linejoin:round;stroke-miterlimit:10;}
	.st24{display:inline;fill:none;stroke:#808080;stroke-width:8;stroke-linecap:round;stroke-linejoin:round;stroke-miterlimit:10;}
	.st25{font-family:'TitilliumWeb-SemiBold';}
	.st26{font-size:140.5187px;}
	.st27{fill:none;stroke:#808080;stroke-width:4;stroke-linecap:round;stroke-linejoin:round;stroke-miterlimit:10;}
</style>
<g id="taust" class="st0">
	<rect x="-1.7" y="-1.2" class="st1" width="260.7" height="258.5"/>
</g>
<g id="add_lights" class="st0">
	<g class="st2">
		<path d="M-563.6,592.8h-43.1c-15.8,0-28.7-12.8-28.7-28.7v-43.1c0-15.8,12.8-28.7,28.7-28.7h43.1c15.8,0,28.7,12.8,28.7,28.7v43.1
			C-535,580-547.8,592.8-563.6,592.8z"/>
		<path class="st3" d="M-575.9,566.7h-18.8c-7.9,0-14.3-6.4-14.3-14.3v-18.8c0-7.9,6.4-14.3,14.3-14.3h18.8
			c7.9,0,14.3,6.4,14.3,14.3v18.8C-561.6,560.3-568,566.7-575.9,566.7z"/>
		<line class="st4" x1="-564" y1="526" x2="-581.4" y2="526"/>
		<line class="st4" x1="-562.4" y1="532.8" x2="-581.4" y2="532.8"/>
		<line class="st4" x1="-562.4" y1="539.6" x2="-581.4" y2="539.6"/>
		<line class="st4" x1="-562.4" y1="546.4" x2="-581.4" y2="546.4"/>
		<line class="st4" x1="-562.4" y1="553.2" x2="-581.4" y2="553.2"/>
		<line class="st4" x1="-566.1" y1="560" x2="-581.4" y2="560"/>
	</g>
	<path class="st2" d="M-1094.4-804.4h-43.1c-15.8,0-28.7-12.8-28.7-28.7v-43.1c0-15.8,12.8-28.7,28.7-28.7h43.1
		c15.8,0,28.7,12.8,28.7,28.7v43.1C-1065.7-817.2-1078.5-804.4-1094.4-804.4z"/>
	<path class="st2" d="M-953-804.4h-43.1c-15.8,0-28.7-12.8-28.7-28.7v-43.1c0-15.8,12.8-28.7,28.7-28.7h43.1
		c15.8,0,28.7,12.8,28.7,28.7v43.1C-924.4-817.2-937.2-804.4-953-804.4z"/>
	<path class="st5" d="M-1104-831.5h-18.8c-7.9,0-14.3-6.4-14.3-14.3v-18.8c0-7.9,6.4-14.3,14.3-14.3h18.8c7.9,0,14.3,6.4,14.3,14.3
		v18.8C-1089.7-837.9-1096.1-831.5-1104-831.5z"/>
	<polyline class="st5" points="-1127.2,-862.5 -1114.9,-850.3 -1086.2,-879.1 	"/>
	<line class="st6" x1="-810" y1="-871.3" x2="-827.5" y2="-871.3"/>
	<line class="st6" x1="-812.3" y1="-857.6" x2="-831.3" y2="-857.6"/>
	<line class="st6" x1="-812.3" y1="-850.8" x2="-831.3" y2="-850.8"/>
	<line class="st6" x1="-812.3" y1="-844" x2="-831.3" y2="-844"/>
	<line class="st6" x1="-816" y1="-837.2" x2="-831.3" y2="-837.2"/>
	<path class="st2" d="M-814.4-804.4h-43.1c-15.8,0-28.7-12.8-28.7-28.7v-43.1c0-15.8,12.8-28.7,28.7-28.7h43.1
		c15.8,0,28.7,12.8,28.7,28.7v43.1C-785.7-817.2-798.5-804.4-814.4-804.4z"/>
	<path class="st7" d="M-849.5-826.8h18.8c7.9,0,14.3-6.4,14.3-14.3v-18.8c0-7.9-6.4-14.3-14.3-14.3h-18.8c-7.9,0-14.3,6.4-14.3,14.3
		v18.8l13.7-13.7l11.1,11.1l7.5-7.5l14.4,14.2"/>
	<path class="st7" d="M-808.8-844.9c1.7-2.4,2.7-5.3,2.7-8.4v-18.8c0-7.9-6.4-14.3-14.3-14.3h-18.8c-4.2,0-8,1.8-10.6,4.7"/>
	<circle class="st8" cx="-831.3" cy="-862.7" r="3.9"/>
	<g class="st2">
		<path d="M-954-808.6h-43.1c-15.8,0-28.7-12.8-28.7-28.7v-43.1c0-15.8,12.8-28.7,28.7-28.7h43.1c15.8,0,28.7,12.8,28.7,28.7v43.1
			C-925.3-821.4-938.1-808.6-954-808.6z"/>
		<path class="st3" d="M-966.3-834.7H-985c-7.9,0-14.3-6.4-14.3-14.3v-18.8c0-7.9,6.4-14.3,14.3-14.3h18.8c7.9,0,14.3,6.4,14.3,14.3
			v18.8C-951.9-841.1-958.3-834.7-966.3-834.7z"/>
		<line class="st4" x1="-954.3" y1="-875.4" x2="-971.8" y2="-875.4"/>
		<line class="st4" x1="-952.8" y1="-868.6" x2="-971.8" y2="-868.6"/>
		<line class="st4" x1="-952.8" y1="-861.8" x2="-971.8" y2="-861.8"/>
		<line class="st4" x1="-952.8" y1="-855" x2="-971.8" y2="-855"/>
		<line class="st4" x1="-952.8" y1="-848.2" x2="-971.8" y2="-848.2"/>
		<line class="st4" x1="-956.5" y1="-841.4" x2="-971.8" y2="-841.4"/>
	</g>
	<g class="st2">
		<path d="M-664.9-803.5H-708c-15.8,0-28.7-12.8-28.7-28.7v-43.1c0-15.8,12.8-28.7,28.7-28.7h43.1c15.8,0,28.7,12.8,28.7,28.7v43.1
			C-636.3-816.4-649.1-803.5-664.9-803.5z"/>
		<path class="st9" d="M-704-822.8h18.8c7.9,0,14.3-6.4,14.3-14.3v-18.8c0-7.9-6.4-14.3-14.3-14.3H-704c-7.9,0-14.3,6.4-14.3,14.3
			v18.8l13.7-13.7l11.1,11.1l7.5-7.5l14.4,14.2"/>
		<circle class="st10" cx="-685.9" cy="-858.7" r="3.9"/>
		<path class="st9" d="M-662.4-850.9c8.3-2.6,14.3-10.4,14.3-19.6c0-11.3-9.2-20.5-20.5-20.5c-8.7,0-16.2,5.5-19.2,13.2"/>
		<line class="st9" x1="-668.7" y1="-870.5" x2="-659.3" y2="-879.8"/>
	</g>
	<path class="st2" d="M-492.1-805.7h-43.1c-15.8,0-28.7-12.8-28.7-28.7v-43.1c0-15.8,12.8-28.7,28.7-28.7h43.1
		c15.8,0,28.7,12.8,28.7,28.7v43.1C-463.5-818.6-476.3-805.7-492.1-805.7z"/>
	<path class="st7" d="M-531-822.8h18.8c7.9,0,14.3-6.4,14.3-14.3v-18.8c0-7.9-6.4-14.3-14.3-14.3H-531c-7.9,0-14.3,6.4-14.3,14.3
		v18.8l13.7-13.7l11.1,11.1l7.5-7.5l14.4,14.2"/>
	<circle class="st8" cx="-512.8" cy="-858.7" r="3.9"/>
	<circle class="st11" cx="-490.4" cy="-867.2" r="4.7"/>
	<path class="st12" d="M-508.4-877.5c4.5-8.7,13-18.5,13-18.5s15.8,18.2,15.8,26.9c0,6.5-4,12.1-9.6,14.5"/>
	<path class="st13" d="M126.6,172c-23.9,0-43.2-19.4-43.2-43.2s19.4-43.2,43.2-43.2s43.2,19.4,43.2,43.2"/>
	<line class="st13" x1="126.2" y1="69.9" x2="126.3" y2="46.9"/>
	<line class="st13" x1="167.9" y1="86.9" x2="180.6" y2="74.4"/>
	<line class="st13" x1="185.4" y1="128.4" x2="208.4" y2="128.5"/>
	<line class="st13" x1="126.9" y1="187.6" x2="126.8" y2="210.5"/>
	<line class="st13" x1="85.2" y1="170.6" x2="72.6" y2="183.1"/>
	<line class="st13" x1="67.8" y1="129.1" x2="44.8" y2="129"/>
	<line class="st13" x1="84.7" y1="87.4" x2="72.2" y2="74.7"/>
	<circle class="st13" cx="179" cy="179.4" r="36.3"/>
	<line class="st13" x1="161.3" y1="179.4" x2="196.7" y2="179.4"/>
	<line class="st13" x1="179" y1="197.1" x2="179" y2="161.7"/>
</g>
<g id="add_lights_v2">
	<g>
		<path class="st14" d="M-563.6,492.4h-43.1c-15.8,0-28.7,12.8-28.7,28.7v43.1c0,15.8,12.8,28.7,28.7,28.7h43.1
			c15.8,0,28.7-12.8,28.7-28.7v-43.1C-535,505.2-547.8,492.4-563.6,492.4z"/>
		<path class="st14" d="M-1094.4-904.8h-43.1c-15.8,0-28.7,12.8-28.7,28.7v43.1c0,15.8,12.8,28.7,28.7,28.7h43.1
			c15.8,0,28.7-12.8,28.7-28.7v-43.1C-1065.7-892-1078.5-904.8-1094.4-904.8z"/>
		<path class="st14" d="M-814.4-904.8h-43.1c-15.8,0-28.7,12.8-28.7,28.7v43.1c0,15.8,12.8,28.7,28.7,28.7h43.1
			c15.8,0,28.7-12.8,28.7-28.7v-43.1C-785.7-892-798.5-904.8-814.4-904.8z"/>
		<path class="st14" d="M-954-909h-43.1c-15.8,0-28.7,12.8-28.7,28.7v43.1c0,2.9,0.4,5.8,1.3,8.4c2.1,13.8,14,24.4,28.3,24.4h43.1
			c15.8,0,28.7-12.8,28.7-28.7v-43.1c0-2.9-0.4-5.8-1.3-8.4C-927.7-898.4-939.6-909-954-909z"/>
		<path class="st14" d="M-664.9-903.9H-708c-15.8,0-28.7,12.8-28.7,28.7v43.1c0,15.8,12.8,28.7,28.7,28.7h43.1
			c15.8,0,28.7-12.8,28.7-28.7v-43.1C-636.3-891.1-649.1-903.9-664.9-903.9z"/>
		<path class="st14" d="M-492.1-906.1h-43.1c-15.8,0-28.7,12.8-28.7,28.7v43.1c0,15.8,12.8,28.7,28.7,28.7h43.1
			c15.8,0,28.7-12.8,28.7-28.7v-43.1C-463.5-893.3-476.3-906.1-492.1-906.1z"/>
		<path class="st14" d="M125.9,70.5C125.9,70.5,125.9,70.5,125.9,70.5c2.2,0,4-1.8,4-4l0.1-20.7c0-2.2-1.8-4-4-4c-2.2,0-4,1.8-4,4
			l-0.1,20.7C121.9,68.7,123.7,70.5,125.9,70.5z"/>
		<path class="st14" d="M169.2,88.1c1,0,2-0.4,2.8-1.1l11.1-10.9c1.6-1.5,1.6-4.1,0.1-5.7c-1.5-1.6-4.1-1.6-5.7-0.1l-11.1,10.9
			c-1.6,1.5-1.6,4.1-0.1,5.7C167.1,87.7,168.1,88.1,169.2,88.1z"/>
		<path class="st14" d="M187.2,131.1l20.8,0.2c0,0,0,0,0,0c2.2,0,4-1.8,4-4c0-2.2-1.8-4-4-4l-20.8-0.2c0,0,0,0,0,0c-2.2,0-4,1.8-4,4
			C183.2,129.3,185,131.1,187.2,131.1z"/>
		<path class="st14" d="M80.6,168l-11.2,11.1c-1.6,1.6-1.6,4.1,0,5.7c0.8,0.8,1.8,1.2,2.8,1.2c1,0,2-0.4,2.8-1.2l11.2-11.1
			c1.6-1.6,1.6-4.1,0-5.7C84.7,166.5,82.2,166.5,80.6,168z"/>
		<path class="st14" d="M65.3,123.9C65.3,123.9,65.3,123.9,65.3,123.9l-20.9,0c-2.2,0-4,1.8-4,4c0,2.2,1.8,4,4,4c0,0,0,0,0,0l20.9,0
			c2.2,0,4-1.8,4-4C69.3,125.6,67.5,123.9,65.3,123.9z"/>
		<path class="st14" d="M80.1,87.5c0.8,0.8,1.8,1.2,2.8,1.2c1,0,2-0.4,2.8-1.2c1.6-1.6,1.6-4.1,0-5.7l-11-11c-1.6-1.6-4.1-1.6-5.7,0
			c-1.6,1.6-1.6,4.1,0,5.7L80.1,87.5z"/>
		<path class="st14" d="M178.7,138c-22.2,0-40.3,18.1-40.3,40.3s18.1,40.3,40.3,40.3s40.3-18.1,40.3-40.3S200.9,138,178.7,138z
			 M178.7,210.6c-17.8,0-32.3-14.5-32.3-32.3s14.5-32.3,32.3-32.3s32.3,14.5,32.3,32.3S196.5,210.6,178.7,210.6z"/>
		<path class="st14" d="M196.4,174.3h-13.7v-13.7c0-2.2-1.8-4-4-4s-4,1.8-4,4v13.7H161c-2.2,0-4,1.8-4,4s1.8,4,4,4h13.7V196
			c0,2.2,1.8,4,4,4s4-1.8,4-4v-13.7h13.7c2.2,0,4-1.8,4-4S198.6,174.3,196.4,174.3z"/>
		<path class="st14" d="M135.3,199.7h-18.6c-2.7,0-4.9-2.2-4.9-4.9v-21c0-4.2-2.3-8.1-6-10.2c-14-8-22.1-23.6-20.5-39.7
			c1.9-19.4,18-35.1,37.5-36.6c11.5-0.9,22.5,3,30.9,10.8c8.3,7.7,13.1,18.6,13.1,29.9c0,2.2,1.8,4,4,4s4-1.8,4-4
			c0-13.5-5.7-26.6-15.6-35.8c-10.1-9.3-23.2-13.9-36.9-12.9C99,81.1,79.7,99.9,77.4,123.1c-1.9,19.3,7.7,37.9,24.5,47.4
			c1.2,0.7,1.9,1.9,1.9,3.3v21c0,7.1,5.8,12.9,12.9,12.9h18.6c2.2,0,4-1.8,4-4S137.5,199.7,135.3,199.7z"/>
	</g>
</g>
<g id="add_picture" class="st0">
	<circle class="st13" cx="181.4" cy="178.4" r="36.3"/>
	<line class="st13" x1="163.7" y1="178.4" x2="199.1" y2="178.4"/>
	<line class="st13" x1="181.4" y1="196.1" x2="181.4" y2="160.7"/>
	<polyline class="st13" points="66,131 93.9,103.2 116.4,125.7 131.6,110.5 157.9,133.1 	"/>
	<circle class="st11" cx="150.4" cy="93.9" r="7.8"/>
	<path class="st13" d="M180.8,127.1V81.1c0-10.3-8.4-18.7-18.7-18.7H83.2c-10.3,0-18.7,8.4-18.7,18.7V160c0,10.3,8.4,18.7,18.7,18.7
		h47.5"/>
</g>
<g id="setup" class="st0">
	<g class="st2">
		<path class="st14" d="M129.2,164.6c-19.2,0-34.9-15.7-34.9-34.9c0-19.2,15.7-34.9,34.9-34.9s34.9,15.7,34.9,34.9
			C164.1,149,148.4,164.6,129.2,164.6z M129.2,102.8c-14.8,0-26.9,12.1-26.9,26.9c0,14.8,12.1,26.9,26.9,26.9s26.9-12.1,26.9-26.9
			C156.1,114.9,144,102.8,129.2,102.8z"/>
	</g>
	<g class="st2">
		<path class="st14" d="M132,67.7c1.5,0,2.8,0.9,3.4,2.3l4.5,10.7c0.4,1,1.2,1.8,2.3,2.1l4.1,1.3c0.4,0.1,0.8,0.2,1.1,0.2
			c0.7,0,1.3-0.2,1.9-0.5l9.9-6c0.6-0.4,1.3-0.5,1.9-0.5c0.8,0,1.5,0.2,2.2,0.7l4.5,3.3c1.2,0.9,1.8,2.4,1.4,3.8l-2.6,11.3
			c-0.2,1.1,0,2.2,0.6,3l2.5,3.5c0.6,0.9,1.6,1.4,2.7,1.5l11.6,1c1.5,0.1,2.8,1.1,3.2,2.6l1.7,5.3c0.5,1.4,0,3-1.1,4l-8.8,7.6
			c-0.8,0.7-1.3,1.7-1.3,2.8v4.3c0,1.1,0.5,2.1,1.3,2.8l8.8,7.6c1.1,1,1.6,2.5,1.1,4l-1.7,5.3c-0.5,1.4-1.7,2.4-3.2,2.6l-11.6,1
			c-1.1,0.1-2.1,0.6-2.7,1.5l-2.5,3.5c-0.6,0.9-0.9,2-0.6,3l2.6,11.3c0.3,1.5-0.2,3-1.4,3.8l-4.5,3.3c-0.6,0.5-1.4,0.7-2.2,0.7
			c-0.7,0-1.3-0.2-1.9-0.5l-9.9-6c-0.6-0.4-1.3-0.5-1.9-0.5c-0.4,0-0.8,0.1-1.1,0.2l-4.1,1.3c-1,0.3-1.9,1.1-2.3,2.1l-4.5,10.7
			c-0.6,1.4-1.9,2.3-3.4,2.3h-5.6c-1.5,0-2.8-0.9-3.4-2.3l-4.5-10.7c-0.4-1-1.2-1.8-2.3-2.1l-4.1-1.3c-0.4-0.1-0.8-0.2-1.1-0.2
			c-0.7,0-1.3,0.2-1.9,0.5l-9.9,6c-0.6,0.4-1.3,0.5-1.9,0.5c-0.8,0-1.5-0.2-2.2-0.7l-4.5-3.3c-1.2-0.9-1.8-2.4-1.4-3.8l2.6-11.3
			c0.2-1.1,0-2.2-0.6-3l-2.5-3.5c-0.6-0.9-1.6-1.4-2.7-1.5l-11.6-1c-1.5-0.1-2.8-1.1-3.2-2.6l-1.7-5.3c-0.5-1.4,0-3,1.1-4l8.8-7.6
			c0.8-0.7,1.3-1.7,1.3-2.8v-4.3c0-1.1-0.5-2.1-1.3-2.8l-8.8-7.6c-1.1-1-1.6-2.5-1.1-4l1.7-5.3c0.5-1.4,1.7-2.4,3.2-2.6l11.6-1
			c1.1-0.1,2.1-0.6,2.7-1.5l2.5-3.5c0.6-0.9,0.9-2,0.6-3L89,85c-0.3-1.5,0.2-3,1.4-3.8l4.5-3.3c0.6-0.5,1.4-0.7,2.2-0.7
			c0.7,0,1.3,0.2,1.9,0.5l9.9,6c0.6,0.4,1.3,0.5,1.9,0.5c0.4,0,0.8-0.1,1.1-0.2l4.1-1.3c1-0.3,1.9-1.1,2.3-2.1L123,70
			c0.6-1.4,1.9-2.3,3.4-2.3H132 M132,59.7h-5.6c-4.7,0-9,2.8-10.8,7.2l-3.7,8.9l-0.3,0.1l-8.3-5c-1.8-1.1-3.9-1.7-6.1-1.7
			c-2.5,0-4.9,0.8-6.9,2.2l-4.5,3.3c-3.8,2.8-5.6,7.5-4.5,12.1l2.2,9.4l-0.2,0.3l-9.6,0.8c-4.7,0.4-8.7,3.6-10.2,8.1l-1.7,5.3
			c-1.5,4.5-0.1,9.4,3.5,12.5l7.3,6.3v0.4l-7.3,6.3c-3.6,3.1-4.9,8-3.5,12.5l1.7,5.3c1.5,4.5,5.4,7.7,10.2,8.1l9.6,0.8l0.2,0.3
			l-2.2,9.4c-1.1,4.6,0.7,9.4,4.5,12.1l4.5,3.3c2,1.5,4.4,2.2,6.9,2.2c2.1,0,4.2-0.6,6.1-1.7l8.3-5l0.3,0.1l3.7,8.9
			c1.8,4.4,6.1,7.2,10.8,7.2h5.6c4.7,0,9-2.8,10.8-7.2l3.7-8.9l0.3-0.1l8.3,5c1.8,1.1,3.9,1.7,6.1,1.7c2.5,0,4.9-0.8,6.9-2.2
			l4.5-3.3c3.8-2.8,5.6-7.5,4.5-12.1l-2.2-9.4l0.2-0.3l9.6-0.8c4.7-0.4,8.7-3.6,10.2-8.1l1.7-5.3c1.5-4.5,0.1-9.4-3.5-12.5l-7.3-6.3
			v-0.4l7.3-6.3c3.6-3.1,4.9-8,3.5-12.5l-1.7-5.3c-1.5-4.5-5.4-7.7-10.2-8.1l-9.6-0.8l-0.2-0.3l2.2-9.4c1.1-4.6-0.7-9.4-4.5-12.1
			l-4.5-3.3c-2-1.5-4.4-2.2-6.9-2.2c-2.1,0-4.2,0.6-6.1,1.7l-8.3,5l-0.3-0.1l-3.7-8.9C141,62.5,136.7,59.7,132,59.7L132,59.7z"/>
	</g>
</g>
<g id="undo" class="st0">
	<path class="st13" d="M157.8,68h-56.3C82,68,66.2,83.8,66.2,103.3v56.3c0,19.5,15.8,35.3,35.3,35.3h56.3
		c19.5,0,35.3-15.8,35.3-35.3v-56.3"/>
	<polyline class="st15" points="129.8,98.7 160,68.5 129.8,38.2 	"/>
</g>
<g id="fx_settings" class="st0">
	<path class="st15" d="M162.2,172H47.9c-4.8,0-8.6-3.9-8.6-8.6V92.1c0-4.8,3.9-8.6,8.6-8.6h163.7c4.8,0,8.6,3.9,8.6,8.6v46.8"/>
	<path class="st11" d="M207.5,144.6l0.7,5.9l5.8,2.4l4.7-3.7c0.7-0.6,1.7-0.5,2.3,0.1l4.3,4.3c0.6,0.6,0.7,1.6,0.1,2.3l-3.7,4.7
		l2.4,5.8l5.9,0.7c0.9,0.1,1.6,0.9,1.6,1.7v6.1c0,0.9-0.7,1.6-1.6,1.7l-5.9,0.7l-2.4,5.8l3.7,4.7c0.6,0.7,0.5,1.7-0.1,2.3l-4.3,4.3
		c-0.6,0.6-1.6,0.7-2.3,0.1l-4.7-3.7l-5.8,2.4l-0.7,5.9c-0.1,0.9-0.9,1.6-1.7,1.6h-6.1c-0.9,0-1.6-0.7-1.7-1.6l-0.7-5.9l-5.8-2.4
		l-4.7,3.7c-0.7,0.6-1.7,0.5-2.3-0.1l-4.3-4.3c-0.6-0.6-0.7-1.6-0.1-2.3l3.7-4.7l-2.4-5.8l-5.9-0.7c-0.9-0.1-1.6-0.9-1.6-1.7v-6.1
		c0-0.9,0.7-1.6,1.6-1.7l5.9-0.7l2.4-5.8L180,156c-0.6-0.7-0.5-1.7,0.1-2.3l4.3-4.3c0.6-0.6,1.6-0.7,2.3-0.1l4.7,3.7l5.8-2.4
		l0.7-5.9c0.1-0.9,0.9-1.6,1.7-1.6h6.1C206.7,143.1,207.4,143.8,207.5,144.6z M218.5,171.9c0-8.7-7-15.7-15.7-15.7
		c-8.7,0-15.7,7-15.7,15.7c0,8.7,7,15.7,15.7,15.7C211.4,187.7,218.5,180.6,218.5,171.9z"/>
	<g class="st2">
		<defs>
			<path id="SVGID_1_" d="M203.1,140.3c1.4,0,2.7,0.1,4,0.3V86.6H41.3v78.8H172C175,151.1,187.8,140.3,203.1,140.3z"/>
		</defs>
		<clipPath id="SVGID_2_">
			<use xlink:href="#SVGID_1_"  style="overflow:visible;"/>
		</clipPath>
		<g class="st16">
			<g>
				<path class="st14" d="M81.2,159.8h-8.9L52.2,98.9h12.3l12.2,39.7L89,98.9h12.4L81.2,159.8z"/>
				<path class="st14" d="M120.6,109.5v15h24v10.6h-24v24.7h-11.9V98.9h40.1v10.6H120.6z"/>
				<path class="st14" d="M189.6,159.8l-11.8-21.2l-11.7,21.2h-13.6l18.9-31.2l-17.7-29.7h13.5l10.6,19.7l10.7-19.7h13.4l-17.7,29.7
					l19,31.2H189.6z"/>
			</g>
		</g>
	</g>
</g>
<g id="align_vert" class="st0">
	<path class="st15" d="M176.6,105H79.4c-5.3,0-9.6-4.3-9.6-9.6v-2.8c0-5.3,4.3-9.6,9.6-9.6h97.2c5.3,0,9.6,4.3,9.6,9.6v2.8
		C186.2,100.7,181.9,105,176.6,105z"/>
	<path class="st15" d="M211.7,173H44.3c-5.3,0-9.6-4.3-9.6-9.6v-2.8c0-5.3,4.3-9.6,9.6-9.6h167.4c5.3,0,9.6,4.3,9.6,9.6v2.8
		C221.3,168.7,217,173,211.7,173z"/>
	<line class="st17" x1="128" y1="49.9" x2="128" y2="70.2"/>
	<line class="st17" x1="128" y1="117.9" x2="128" y2="138.1"/>
	<line class="st17" x1="128" y1="185.8" x2="128" y2="206.1"/>
</g>
<g id="align_horiz" class="st0">
	<path class="st15" d="M151,176.6V79.4c0-5.3,4.3-9.6,9.6-9.6h2.8c5.3,0,9.6,4.3,9.6,9.6v97.2c0,5.3-4.3,9.6-9.6,9.6h-2.8
		C155.3,186.2,151,181.9,151,176.6z"/>
	<path class="st15" d="M83,211.7V44.3c0-5.3,4.3-9.6,9.6-9.6h2.8c5.3,0,9.6,4.3,9.6,9.6v167.4c0,5.3-4.3,9.6-9.6,9.6h-2.8
		C87.3,221.3,83,217,83,211.7z"/>
	<line class="st17" x1="206.1" y1="128" x2="185.8" y2="128"/>
	<line class="st17" x1="138.1" y1="128" x2="117.9" y2="128"/>
	<line class="st17" x1="70.2" y1="128" x2="49.9" y2="128"/>
</g>
<g id="distribution__horiz" class="st0">
	<path class="st15" d="M157.3,177.8V80.7c0-5.3,4.3-9.6,9.6-9.6h2.8c5.3,0,9.6,4.3,9.6,9.6v97.2c0,5.3-4.3,9.6-9.6,9.6h-2.8
		C161.6,187.4,157.3,183.1,157.3,177.8z"/>
	<path class="st15" d="M76.7,213V45.6c0-5.3,4.3-9.6,9.6-9.6h2.8c5.3,0,9.6,4.3,9.6,9.6V213c0,5.3-4.3,9.6-9.6,9.6h-2.8
		C81,222.5,76.7,218.3,76.7,213z"/>
	<g class="st2">
		<line class="st18" x1="144.6" y1="129.3" x2="112.3" y2="129.3"/>
		<polyline class="st18" points="121.8,141.7 109.4,129.3 121.8,116.9 		"/>
		<polyline class="st18" points="134.2,141.7 146.6,129.3 134.2,116.9 		"/>
	</g>
</g>
<g id="distribution__vert" class="st0">
	<path class="st15" d="M176.6,99.7H79.4c-5.3,0-9.6-4.3-9.6-9.6v-2.8c0-5.3,4.3-9.6,9.6-9.6h97.2c5.3,0,9.6,4.3,9.6,9.6v2.8
		C186.2,95.4,181.9,99.7,176.6,99.7z"/>
	<path class="st15" d="M211.7,179.3H44.3c-5.3,0-9.6-4.3-9.6-9.6v-2.8c0-5.3,4.3-9.6,9.6-9.6h167.4c5.3,0,9.6,4.3,9.6,9.6v2.8
		C221.3,175,217,179.3,211.7,179.3z"/>
	<g class="st2">
		<line class="st18" x1="128" y1="111.4" x2="128" y2="143.7"/>
		<polyline class="st18" points="140.4,134.2 128,146.6 115.6,134.2 		"/>
		<polyline class="st18" points="140.4,121.8 128,109.4 115.6,121.8 		"/>
	</g>
</g>
<g id="make_same_size" class="st0">
	<path class="st15" d="M176.8,105.8H79.6c-5.3,0-9.6-4.3-9.6-9.6v-2.8c0-5.3,4.3-9.6,9.6-9.6h97.2c5.3,0,9.6,4.3,9.6,9.6v2.8
		C186.3,101.5,182.1,105.8,176.8,105.8z"/>
	<path class="st15" d="M211.9,173.6H44.5c-5.3,0-9.6-4.3-9.6-9.6v-2.8c0-5.3,4.3-9.6,9.6-9.6h167.4c5.3,0,9.6,4.3,9.6,9.6v2.8
		C221.5,169.3,217.2,173.6,211.9,173.6z"/>
	<line class="st17" x1="199.3" y1="95.1" x2="223.6" y2="95.1"/>
	<polyline class="st17" points="212,107.2 224.4,94.8 212,82.4 	"/>
	<line class="st17" x1="234.1" y1="164.1" x2="234.1" y2="96.5"/>
	<line class="st17" x1="56.7" y1="95.1" x2="32.4" y2="95.1"/>
	<polyline class="st17" points="44,107.2 31.6,94.8 44,82.4 	"/>
	<line class="st17" x1="21.9" y1="164.1" x2="21.9" y2="96.5"/>
</g>
<g id="flip" class="st0">
	<g class="st2">
		<path class="st19" d="M184.5,189.2L57.2,80.4c-4-3.4-4.5-9.5-1.1-13.5l1.9-2.2c3.4-4,9.5-4.5,13.5-1.1l127.3,108.7
			c4,3.4,4.5,9.5,1.1,13.5l-1.9,2.2C194.6,192.1,188.5,192.6,184.5,189.2z"/>
		<path class="st20" d="M101.1,135l-43.9,37.4c-4,3.4-4.5,9.5-1.1,13.5l1.9,2.2c3.4,4,9.5,4.5,13.5,1.1l46.2-39.4"/>
		<path class="st21" d="M157.1,115.9l41.7-35.4c4-3.4,4.5-9.5,1.1-13.5l-1.9-2.2c-3.4-4-9.5-4.5-13.5-1.1l-44.1,37.5"/>
		<line class="st18" x1="128" y1="204.6" x2="128" y2="160.8"/>
		<line class="st18" x1="128" y1="95.2" x2="128" y2="51.4"/>
	</g>
</g>
<g id="arrow_right" class="st0">
	<polyline class="st13" points="100.4,198 155.6,128 100.4,58 	"/>
</g>
<g id="arrow_left" class="st0">
	<polyline class="st13" points="155.6,58 100.4,128 155.6,198 	"/>
</g>
<g id="select_all" class="st0">
	<path class="st13" d="M189.1,80.4h-84.8c-13.2,0-23.9,10.7-23.9,23.9v84.8c0,13.2,10.7,23.9,23.9,23.9h84.8
		c13.2,0,23.9-10.7,23.9-23.9v-84.8C213,91.1,202.3,80.4,189.1,80.4z"/>
	<path class="st22" d="M179.4,62.3c-2.9-1.3-6.1-2-9.5-2H97c-19.8,0-35.9,16.1-35.9,35.9V169c0,3.7,0.9,7.2,2.4,10.4"/>
	<path class="st22" d="M161.2,45c-2.9-1.3-6.1-2-9.5-2H88.2C63.2,43,43,63.3,43,88.3v63.5c0,3.7,0.9,7.2,2.4,10.4"/>
	<polyline class="st13" points="109.3,145 137.9,173.6 182.9,128.7 	"/>
</g>
<g id="deselect_all" class="st0">
	<path class="st13" d="M189.1,80.4h-84.8c-13.2,0-23.9,10.7-23.9,23.9v84.8c0,13.2,10.7,23.9,23.9,23.9h84.8
		c13.2,0,23.9-10.7,23.9-23.9v-84.8C213,91.1,202.3,80.4,189.1,80.4z"/>
	<path class="st22" d="M179.4,62.3c-2.9-1.3-6.1-2-9.5-2H97c-19.8,0-35.9,16.1-35.9,35.9V169c0,3.7,0.9,7.2,2.4,10.4"/>
	<path class="st22" d="M161.2,45c-2.9-1.3-6.1-2-9.5-2H88.2C63.2,43,43,63.3,43,88.3v63.5c0,3.7,0.9,7.2,2.4,10.4"/>
	<line class="st13" x1="116.4" y1="177.2" x2="176.5" y2="117.1"/>
	<line class="st13" x1="176.5" y1="177.2" x2="116.4" y2="117.1"/>
</g>
<g id="select_all_copy" class="st0">
	<polyline class="st13" points="129.8,111.7 156.5,138.4 195.2,99.7 	"/>
	<path class="st13" d="M219.1,111c0-33.2-27.4-59.9-60.8-58.9c-30.2,0.9-55.2,25.1-57,55.2c-1.5,24.7,12.3,46.4,32.8,56.6
		c1.1,0.6,1.8,1.7,1.8,2.9c0,6,0,23.9,0,34.3c0,4.2,3.4,7.6,7.7,7.6h33.2c4.2,0,7.7-3.4,7.7-7.7v-34.3c0-1.3,0.7-2.4,1.9-2.9
		C205.7,154.2,219.1,134.2,219.1,111z"/>
	<line class="st23" x1="185.1" y1="164.4" x2="137.8" y2="164.4"/>
	<path class="st24" d="M104,58.6C86,67.9,73.3,86.1,72,107.3c-1.5,24.7,12.3,46.4,32.8,56.6c1.1,0.6,1.8,1.7,1.8,2.9
		c0,6,0,23.9,0,34.3c0,4.2,3.4,7.6,7.7,7.6h8.3"/>
	<path class="st24" d="M74.2,58.6c-17.9,9.3-30.7,27.5-32,48.7C40.7,132,54.5,153.7,75,163.9c1.1,0.6,1.8,1.7,1.8,2.9
		c0,6,0,23.9,0,34.3c0,4.2,3.4,7.6,7.7,7.6h8.3"/>
</g>
<g id="deselect_all_copy" class="st0">
	<line class="st13" x1="142.5" y1="128.3" x2="179" y2="91.8"/>
	<line class="st13" x1="179" y1="128.3" x2="142.5" y2="91.8"/>
	<path class="st13" d="M219.1,111c0-33.2-27.4-59.9-60.8-58.9c-30.2,0.9-55.2,25.1-57,55.2c-1.5,24.7,12.3,46.4,32.8,56.6
		c1.1,0.6,1.8,1.7,1.8,2.9c0,6,0,23.9,0,34.3c0,4.2,3.4,7.6,7.7,7.6h33.2c4.2,0,7.7-3.4,7.7-7.7v-34.3c0-1.3,0.7-2.4,1.9-2.9
		C205.7,154.2,219.1,134.2,219.1,111z"/>
	<line class="st23" x1="185.1" y1="164.4" x2="137.8" y2="164.4"/>
	<path class="st24" d="M104,58.6C86,67.9,73.3,86.1,72,107.3c-1.5,24.7,12.3,46.4,32.8,56.6c1.1,0.6,1.8,1.7,1.8,2.9
		c0,6,0,23.9,0,34.3c0,4.2,3.4,7.6,7.7,7.6h8.3"/>
	<path class="st24" d="M74.2,58.6c-17.9,9.3-30.7,27.5-32,48.7C40.7,132,54.5,153.7,75,163.9c1.1,0.6,1.8,1.7,1.8,2.9
		c0,6,0,23.9,0,34.3c0,4.2,3.4,7.6,7.7,7.6h8.3"/>
</g>
<g id="help" class="st0">
	<path class="st13" d="M177.5,61.9H78.5c-9.1,0-16.5,7.4-16.5,16.5v99.1c0,9.1,7.4,16.5,16.5,16.5h99.1c9.1,0,16.5-7.4,16.5-16.5
		V78.5C194.1,69.3,186.7,61.9,177.5,61.9z"/>
	<text transform="matrix(1 0 0 1 99.3441 177.0273)" class="st11 st25 st26">?</text>
</g>
<g id="lamp_settings" class="st0">
	<g class="st2">
		<path d="M-563.6,592.8h-43.1c-15.8,0-28.7-12.8-28.7-28.7v-43.1c0-15.8,12.8-28.7,28.7-28.7h43.1c15.8,0,28.7,12.8,28.7,28.7v43.1
			C-535,580-547.8,592.8-563.6,592.8z"/>
		<path class="st3" d="M-575.9,566.7h-18.8c-7.9,0-14.3-6.4-14.3-14.3v-18.8c0-7.9,6.4-14.3,14.3-14.3h18.8
			c7.9,0,14.3,6.4,14.3,14.3v18.8C-561.6,560.3-568,566.7-575.9,566.7z"/>
		<line class="st4" x1="-564" y1="526" x2="-581.4" y2="526"/>
		<line class="st4" x1="-562.4" y1="532.8" x2="-581.4" y2="532.8"/>
		<line class="st4" x1="-562.4" y1="539.6" x2="-581.4" y2="539.6"/>
		<line class="st4" x1="-562.4" y1="546.4" x2="-581.4" y2="546.4"/>
		<line class="st4" x1="-562.4" y1="553.2" x2="-581.4" y2="553.2"/>
		<line class="st4" x1="-566.1" y1="560" x2="-581.4" y2="560"/>
	</g>
	<path class="st2" d="M-1094.4-804.4h-43.1c-15.8,0-28.7-12.8-28.7-28.7v-43.1c0-15.8,12.8-28.7,28.7-28.7h43.1
		c15.8,0,28.7,12.8,28.7,28.7v43.1C-1065.7-817.2-1078.5-804.4-1094.4-804.4z"/>
	<path class="st2" d="M-953-804.4h-43.1c-15.8,0-28.7-12.8-28.7-28.7v-43.1c0-15.8,12.8-28.7,28.7-28.7h43.1
		c15.8,0,28.7,12.8,28.7,28.7v43.1C-924.4-817.2-937.2-804.4-953-804.4z"/>
	<path class="st5" d="M-1104-831.5h-18.8c-7.9,0-14.3-6.4-14.3-14.3v-18.8c0-7.9,6.4-14.3,14.3-14.3h18.8c7.9,0,14.3,6.4,14.3,14.3
		v18.8C-1089.7-837.9-1096.1-831.5-1104-831.5z"/>
	<polyline class="st5" points="-1127.2,-862.5 -1114.9,-850.3 -1086.2,-879.1 	"/>
	<line class="st6" x1="-810" y1="-871.3" x2="-827.5" y2="-871.3"/>
	<line class="st6" x1="-812.3" y1="-857.6" x2="-831.3" y2="-857.6"/>
	<line class="st6" x1="-812.3" y1="-850.8" x2="-831.3" y2="-850.8"/>
	<line class="st6" x1="-812.3" y1="-844" x2="-831.3" y2="-844"/>
	<line class="st6" x1="-816" y1="-837.2" x2="-831.3" y2="-837.2"/>
	<path class="st2" d="M-814.4-804.4h-43.1c-15.8,0-28.7-12.8-28.7-28.7v-43.1c0-15.8,12.8-28.7,28.7-28.7h43.1
		c15.8,0,28.7,12.8,28.7,28.7v43.1C-785.7-817.2-798.5-804.4-814.4-804.4z"/>
	<path class="st7" d="M-849.5-826.8h18.8c7.9,0,14.3-6.4,14.3-14.3v-18.8c0-7.9-6.4-14.3-14.3-14.3h-18.8c-7.9,0-14.3,6.4-14.3,14.3
		v18.8l13.7-13.7l11.1,11.1l7.5-7.5l14.4,14.2"/>
	<path class="st7" d="M-808.8-844.9c1.7-2.4,2.7-5.3,2.7-8.4v-18.8c0-7.9-6.4-14.3-14.3-14.3h-18.8c-4.2,0-8,1.8-10.6,4.7"/>
	<circle class="st8" cx="-831.3" cy="-862.7" r="3.9"/>
	<g class="st2">
		<path d="M-954-808.6h-43.1c-15.8,0-28.7-12.8-28.7-28.7v-43.1c0-15.8,12.8-28.7,28.7-28.7h43.1c15.8,0,28.7,12.8,28.7,28.7v43.1
			C-925.3-821.4-938.1-808.6-954-808.6z"/>
		<path class="st3" d="M-966.3-834.7H-985c-7.9,0-14.3-6.4-14.3-14.3v-18.8c0-7.9,6.4-14.3,14.3-14.3h18.8c7.9,0,14.3,6.4,14.3,14.3
			v18.8C-951.9-841.1-958.3-834.7-966.3-834.7z"/>
		<line class="st4" x1="-954.3" y1="-875.4" x2="-971.8" y2="-875.4"/>
		<line class="st4" x1="-952.8" y1="-868.6" x2="-971.8" y2="-868.6"/>
		<line class="st4" x1="-952.8" y1="-861.8" x2="-971.8" y2="-861.8"/>
		<line class="st4" x1="-952.8" y1="-855" x2="-971.8" y2="-855"/>
		<line class="st4" x1="-952.8" y1="-848.2" x2="-971.8" y2="-848.2"/>
		<line class="st4" x1="-956.5" y1="-841.4" x2="-971.8" y2="-841.4"/>
	</g>
	<g class="st2">
		<path d="M-664.9-803.5H-708c-15.8,0-28.7-12.8-28.7-28.7v-43.1c0-15.8,12.8-28.7,28.7-28.7h43.1c15.8,0,28.7,12.8,28.7,28.7v43.1
			C-636.3-816.4-649.1-803.5-664.9-803.5z"/>
		<path class="st9" d="M-704-822.8h18.8c7.9,0,14.3-6.4,14.3-14.3v-18.8c0-7.9-6.4-14.3-14.3-14.3H-704c-7.9,0-14.3,6.4-14.3,14.3
			v18.8l13.7-13.7l11.1,11.1l7.5-7.5l14.4,14.2"/>
		<circle class="st10" cx="-685.9" cy="-858.7" r="3.9"/>
		<path class="st9" d="M-662.4-850.9c8.3-2.6,14.3-10.4,14.3-19.6c0-11.3-9.2-20.5-20.5-20.5c-8.7,0-16.2,5.5-19.2,13.2"/>
		<line class="st9" x1="-668.7" y1="-870.5" x2="-659.3" y2="-879.8"/>
	</g>
	<path class="st2" d="M-492.1-805.7h-43.1c-15.8,0-28.7-12.8-28.7-28.7v-43.1c0-15.8,12.8-28.7,28.7-28.7h43.1
		c15.8,0,28.7,12.8,28.7,28.7v43.1C-463.5-818.6-476.3-805.7-492.1-805.7z"/>
	<path class="st7" d="M-531-822.8h18.8c7.9,0,14.3-6.4,14.3-14.3v-18.8c0-7.9-6.4-14.3-14.3-14.3H-531c-7.9,0-14.3,6.4-14.3,14.3
		v18.8l13.7-13.7l11.1,11.1l7.5-7.5l14.4,14.2"/>
	<circle class="st8" cx="-512.8" cy="-858.7" r="3.9"/>
	<circle class="st11" cx="-490.4" cy="-867.2" r="4.7"/>
	<path class="st12" d="M-508.4-877.5c4.5-8.7,13-18.5,13-18.5s15.8,18.2,15.8,26.9c0,6.5-4,12.1-9.6,14.5"/>
	<line class="st13" x1="126.2" y1="67.6" x2="126.3" y2="46.9"/>
	<line class="st13" x1="169.5" y1="85.3" x2="180.6" y2="74.4"/>
	<line class="st13" x1="187.6" y1="128.3" x2="208.4" y2="128.5"/>
	<line class="st13" x1="83.7" y1="172" x2="72.6" y2="183.1"/>
	<line class="st13" x1="65.6" y1="129" x2="44.8" y2="129"/>
	<line class="st13" x1="83.2" y1="85.8" x2="72.2" y2="74.7"/>
	<path class="st13" d="M171.1,129.1c0-25.9-22-46.7-48.3-44.7c-21.5,1.6-39.1,18.7-41.2,40.2c-1.8,18.6,7.7,35.1,22.5,43.5
		c2.4,1.4,4,4,4,6.8v21c0,4.9,4,8.9,8.9,8.9h18.6"/>
	<path class="st11" d="M177.9,147.1l0.7,6.4l6.3,2.6l5.1-4c0.8-0.6,1.9-0.5,2.5,0.1l4.7,4.7c0.7,0.7,0.7,1.8,0.1,2.5l-4,5.1l2.6,6.3
		l6.4,0.7c1,0.1,1.7,0.9,1.7,1.9v6.6c0,1-0.7,1.8-1.7,1.9l-6.4,0.7l-2.6,6.3l4,5.1c0.6,0.8,0.5,1.9-0.1,2.5l-4.7,4.7
		c-0.7,0.7-1.8,0.7-2.5,0.1l-5.1-4l-6.3,2.6l-0.7,6.4c-0.1,1-0.9,1.7-1.9,1.7h-6.6c-1,0-1.8-0.7-1.9-1.7l-0.7-6.4l-6.3-2.6l-5.1,4
		c-0.8,0.6-1.9,0.5-2.5-0.1l-4.7-4.7c-0.7-0.7-0.7-1.8-0.1-2.5l4-5.1l-2.6-6.3l-6.4-0.7c-1-0.1-1.7-0.9-1.7-1.9v-6.6
		c0-1,0.7-1.8,1.7-1.9l6.4-0.7l2.6-6.3l-4-5.1c-0.6-0.8-0.5-1.9,0.1-2.5l4.7-4.7c0.7-0.7,1.8-0.7,2.5-0.1l5.1,4l6.3-2.6l0.7-6.4
		c0.1-1,0.9-1.7,1.9-1.7h6.6C177,145.4,177.8,146.2,177.9,147.1z M189.8,176.8c0-9.5-7.7-17.1-17.1-17.1c-9.5,0-17.1,7.7-17.1,17.1
		c0,9.5,7.7,17.1,17.1,17.1C182.1,194,189.8,186.3,189.8,176.8z"/>
</g>
<g id="app_settings" class="st0">
	<g class="st2">
		<path d="M-563.6,592.8h-43.1c-15.8,0-28.7-12.8-28.7-28.7v-43.1c0-15.8,12.8-28.7,28.7-28.7h43.1c15.8,0,28.7,12.8,28.7,28.7v43.1
			C-535,580-547.8,592.8-563.6,592.8z"/>
		<path class="st3" d="M-575.9,566.7h-18.8c-7.9,0-14.3-6.4-14.3-14.3v-18.8c0-7.9,6.4-14.3,14.3-14.3h18.8
			c7.9,0,14.3,6.4,14.3,14.3v18.8C-561.6,560.3-568,566.7-575.9,566.7z"/>
		<line class="st4" x1="-564" y1="526" x2="-581.4" y2="526"/>
		<line class="st4" x1="-562.4" y1="532.8" x2="-581.4" y2="532.8"/>
		<line class="st4" x1="-562.4" y1="539.6" x2="-581.4" y2="539.6"/>
		<line class="st4" x1="-562.4" y1="546.4" x2="-581.4" y2="546.4"/>
		<line class="st4" x1="-562.4" y1="553.2" x2="-581.4" y2="553.2"/>
		<line class="st4" x1="-566.1" y1="560" x2="-581.4" y2="560"/>
	</g>
	<path class="st2" d="M-1094.4-804.4h-43.1c-15.8,0-28.7-12.8-28.7-28.7v-43.1c0-15.8,12.8-28.7,28.7-28.7h43.1
		c15.8,0,28.7,12.8,28.7,28.7v43.1C-1065.7-817.2-1078.5-804.4-1094.4-804.4z"/>
	<path class="st2" d="M-953-804.4h-43.1c-15.8,0-28.7-12.8-28.7-28.7v-43.1c0-15.8,12.8-28.7,28.7-28.7h43.1
		c15.8,0,28.7,12.8,28.7,28.7v43.1C-924.4-817.2-937.2-804.4-953-804.4z"/>
	<path class="st5" d="M-1104-831.5h-18.8c-7.9,0-14.3-6.4-14.3-14.3v-18.8c0-7.9,6.4-14.3,14.3-14.3h18.8c7.9,0,14.3,6.4,14.3,14.3
		v18.8C-1089.7-837.9-1096.1-831.5-1104-831.5z"/>
	<polyline class="st5" points="-1127.2,-862.5 -1114.9,-850.3 -1086.2,-879.1 	"/>
	<line class="st6" x1="-810" y1="-871.3" x2="-827.5" y2="-871.3"/>
	<line class="st6" x1="-812.3" y1="-857.6" x2="-831.3" y2="-857.6"/>
	<line class="st6" x1="-812.3" y1="-850.8" x2="-831.3" y2="-850.8"/>
	<line class="st6" x1="-812.3" y1="-844" x2="-831.3" y2="-844"/>
	<line class="st6" x1="-816" y1="-837.2" x2="-831.3" y2="-837.2"/>
	<path class="st2" d="M-814.4-804.4h-43.1c-15.8,0-28.7-12.8-28.7-28.7v-43.1c0-15.8,12.8-28.7,28.7-28.7h43.1
		c15.8,0,28.7,12.8,28.7,28.7v43.1C-785.7-817.2-798.5-804.4-814.4-804.4z"/>
	<path class="st7" d="M-849.5-826.8h18.8c7.9,0,14.3-6.4,14.3-14.3v-18.8c0-7.9-6.4-14.3-14.3-14.3h-18.8c-7.9,0-14.3,6.4-14.3,14.3
		v18.8l13.7-13.7l11.1,11.1l7.5-7.5l14.4,14.2"/>
	<path class="st7" d="M-808.8-844.9c1.7-2.4,2.7-5.3,2.7-8.4v-18.8c0-7.9-6.4-14.3-14.3-14.3h-18.8c-4.2,0-8,1.8-10.6,4.7"/>
	<circle class="st8" cx="-831.3" cy="-862.7" r="3.9"/>
	<g class="st2">
		<path d="M-954-808.6h-43.1c-15.8,0-28.7-12.8-28.7-28.7v-43.1c0-15.8,12.8-28.7,28.7-28.7h43.1c15.8,0,28.7,12.8,28.7,28.7v43.1
			C-925.3-821.4-938.1-808.6-954-808.6z"/>
		<path class="st3" d="M-966.3-834.7H-985c-7.9,0-14.3-6.4-14.3-14.3v-18.8c0-7.9,6.4-14.3,14.3-14.3h18.8c7.9,0,14.3,6.4,14.3,14.3
			v18.8C-951.9-841.1-958.3-834.7-966.3-834.7z"/>
		<line class="st4" x1="-954.3" y1="-875.4" x2="-971.8" y2="-875.4"/>
		<line class="st4" x1="-952.8" y1="-868.6" x2="-971.8" y2="-868.6"/>
		<line class="st4" x1="-952.8" y1="-861.8" x2="-971.8" y2="-861.8"/>
		<line class="st4" x1="-952.8" y1="-855" x2="-971.8" y2="-855"/>
		<line class="st4" x1="-952.8" y1="-848.2" x2="-971.8" y2="-848.2"/>
		<line class="st4" x1="-956.5" y1="-841.4" x2="-971.8" y2="-841.4"/>
	</g>
	<g class="st2">
		<path d="M-664.9-803.5H-708c-15.8,0-28.7-12.8-28.7-28.7v-43.1c0-15.8,12.8-28.7,28.7-28.7h43.1c15.8,0,28.7,12.8,28.7,28.7v43.1
			C-636.3-816.4-649.1-803.5-664.9-803.5z"/>
		<path class="st9" d="M-704-822.8h18.8c7.9,0,14.3-6.4,14.3-14.3v-18.8c0-7.9-6.4-14.3-14.3-14.3H-704c-7.9,0-14.3,6.4-14.3,14.3
			v18.8l13.7-13.7l11.1,11.1l7.5-7.5l14.4,14.2"/>
		<circle class="st10" cx="-685.9" cy="-858.7" r="3.9"/>
		<path class="st9" d="M-662.4-850.9c8.3-2.6,14.3-10.4,14.3-19.6c0-11.3-9.2-20.5-20.5-20.5c-8.7,0-16.2,5.5-19.2,13.2"/>
		<line class="st9" x1="-668.7" y1="-870.5" x2="-659.3" y2="-879.8"/>
	</g>
	<path class="st2" d="M-492.1-805.7h-43.1c-15.8,0-28.7-12.8-28.7-28.7v-43.1c0-15.8,12.8-28.7,28.7-28.7h43.1
		c15.8,0,28.7,12.8,28.7,28.7v43.1C-463.5-818.6-476.3-805.7-492.1-805.7z"/>
	<path class="st7" d="M-531-822.8h18.8c7.9,0,14.3-6.4,14.3-14.3v-18.8c0-7.9-6.4-14.3-14.3-14.3H-531c-7.9,0-14.3,6.4-14.3,14.3
		v18.8l13.7-13.7l11.1,11.1l7.5-7.5l14.4,14.2"/>
	<circle class="st8" cx="-512.8" cy="-858.7" r="3.9"/>
	<circle class="st11" cx="-490.4" cy="-867.2" r="4.7"/>
	<path class="st12" d="M-508.4-877.5c4.5-8.7,13-18.5,13-18.5s15.8,18.2,15.8,26.9c0,6.5-4,12.1-9.6,14.5"/>
	<path class="st11" d="M185.8,152.7l0.7,6.4l6.3,2.6l5.1-4c0.8-0.6,1.9-0.5,2.5,0.1l4.7,4.7c0.7,0.7,0.7,1.8,0.1,2.5l-4,5.1l2.6,6.3
		l6.4,0.7c1,0.1,1.7,0.9,1.7,1.9v6.6c0,1-0.7,1.8-1.7,1.9l-6.4,0.7l-2.6,6.3l4,5.1c0.6,0.8,0.5,1.9-0.1,2.5l-4.7,4.7
		c-0.7,0.7-1.8,0.7-2.5,0.1l-5.1-4l-6.3,2.6l-0.7,6.4c-0.1,1-0.9,1.7-1.9,1.7h-6.6c-1,0-1.8-0.7-1.9-1.7l-0.7-6.4l-6.3-2.6l-5.1,4
		c-0.8,0.6-1.9,0.5-2.5-0.1l-4.7-4.7c-0.7-0.7-0.7-1.8-0.1-2.5l4-5.1l-2.6-6.3l-6.4-0.7c-1-0.1-1.7-0.9-1.7-1.9v-6.6
		c0-1,0.7-1.8,1.7-1.9l6.4-0.7l2.6-6.3l-4-5.1c-0.6-0.8-0.5-1.9,0.1-2.5l4.7-4.7c0.7-0.7,1.8-0.7,2.5-0.1l5.1,4l6.3-2.6l0.7-6.4
		c0.1-1,0.9-1.7,1.9-1.7h6.6C184.9,151,185.7,151.7,185.8,152.7z M197.7,182.4c0-9.5-7.7-17.1-17.1-17.1s-17.1,7.7-17.1,17.1
		c0,9.5,7.7,17.1,17.1,17.1S197.7,191.9,197.7,182.4z"/>
	<path class="st13" d="M151.5,210.5l-59.3,0.7c-6.2,0-11.2-5-11.2-11.2V53.4c0-6.2,5-11.2,11.2-11.2h76.7c6.2,0,11.2,5,11.2,11.2
		v86.9"/>
	<line class="st15" x1="82.5" y1="59.1" x2="178.6" y2="59.1"/>
	<line class="st13" x1="82.5" y1="182.4" x2="139.2" y2="182.4"/>
	<circle class="st11" cx="130.6" cy="196.3" r="6.4"/>
</g>
<g id="new_project" class="st0">
	<circle class="st13" cx="191.3" cy="194.5" r="36.3"/>
	<line class="st13" x1="173.6" y1="194.5" x2="209.1" y2="194.5"/>
	<line class="st13" x1="191.3" y1="212.2" x2="191.3" y2="176.8"/>
	<path class="st13" d="M99.9,68c0,6.9-5.6,12.4-12.4,12.4H61.1l38.8-38.8V68z"/>
	<path class="st13" d="M191.4,141.7V54.1c0-6.9-5.6-12.4-12.4-12.4H99.9L61.1,80.4v116c0,6.9,5.6,12.4,12.4,12.4h69.1"/>
	<path class="st13" d="M156.8,118.3c0-16-13.2-28.9-29.3-28.4c-14.6,0.4-26.6,12.1-27.5,26.6c-0.7,11.9,5.9,22.4,15.8,27.3
		c0.5,0.3,0.9,0.8,0.9,1.4c0,2.9,0,11.5,0,16.5c0,2,1.7,3.7,3.7,3.7h16c2,0,3.7-1.7,3.7-3.7v-16.5c0-0.6,0.4-1.1,0.9-1.4
		C150.4,139.1,156.8,129.4,156.8,118.3z"/>
	<line class="st13" x1="139.6" y1="144.8" x2="117.5" y2="144.8"/>
</g>
<g id="generic_project" class="st0">
	<path class="st13" d="M99.9,68c0,6.9-5.6,12.4-12.4,12.4H61.1l38.8-38.8V68z"/>
	<path class="st13" d="M191.4,196V54.1c0-6.9-5.6-12.4-12.4-12.4H99.9L61.1,80.4v116c0,6.9,5.6,12.4,12.4,12.4h104.9
		C185.6,208.9,191.4,203.1,191.4,196z"/>
	<path class="st13" d="M156.8,118.3c0-16-13.2-28.9-29.3-28.4c-14.6,0.4-26.6,12.1-27.5,26.6c-0.7,11.9,5.9,22.4,15.8,27.3
		c0.5,0.3,0.9,0.8,0.9,1.4c0,2.9,0,11.5,0,16.5c0,2,1.7,3.7,3.7,3.7h16c2,0,3.7-1.7,3.7-3.7v-16.5c0-0.6,0.4-1.1,0.9-1.4
		C150.4,139.1,156.8,129.4,156.8,118.3z"/>
	<line class="st13" x1="139.6" y1="144.8" x2="117.5" y2="144.8"/>
</g>
<g id="save_project" class="st0">
	<circle class="st13" cx="191.3" cy="194.5" r="36.3"/>
	<line class="st13" x1="191.3" y1="212.2" x2="191.3" y2="176.8"/>
	<path class="st13" d="M99.9,68c0,6.9-5.6,12.4-12.4,12.4H61.1l38.8-38.8V68z"/>
	<path class="st13" d="M191.4,141.7V54.1c0-6.9-5.6-12.4-12.4-12.4H99.9L61.1,80.4v116c0,6.9,5.6,12.4,12.4,12.4h69.1"/>
	<path class="st13" d="M156.8,118.3c0-16-13.2-28.9-29.3-28.4c-14.6,0.4-26.6,12.1-27.5,26.6c-0.7,11.9,5.9,22.4,15.8,27.3
		c0.5,0.3,0.9,0.8,0.9,1.4c0,2.9,0,11.5,0,16.5c0,2,1.7,3.7,3.7,3.7h16c2,0,3.7-1.7,3.7-3.7v-16.5c0-0.6,0.4-1.1,0.9-1.4
		C150.4,139.1,156.8,129.4,156.8,118.3z"/>
	<line class="st13" x1="139.6" y1="144.8" x2="117.5" y2="144.8"/>
	<polyline class="st13" points="174,194.6 191.7,212.2 209.3,194.6 	"/>
</g>
<g id="load_project" class="st0">
	<circle class="st13" cx="191.3" cy="194.5" r="36.3"/>
	<line class="st13" x1="192" y1="176.8" x2="192" y2="212.2"/>
	<path class="st13" d="M99.9,68c0,6.9-5.6,12.4-12.4,12.4H61.1l38.8-38.8V68z"/>
	<path class="st13" d="M191.4,141.7V54.1c0-6.9-5.6-12.4-12.4-12.4H99.9L61.1,80.4v116c0,6.9,5.6,12.4,12.4,12.4h69.1"/>
	<path class="st13" d="M156.8,118.3c0-16-13.2-28.9-29.3-28.4c-14.6,0.4-26.6,12.1-27.5,26.6c-0.7,11.9,5.9,22.4,15.8,27.3
		c0.5,0.3,0.9,0.8,0.9,1.4c0,2.9,0,11.5,0,16.5c0,2,1.7,3.7,3.7,3.7h16c2,0,3.7-1.7,3.7-3.7v-16.5c0-0.6,0.4-1.1,0.9-1.4
		C150.4,139.1,156.8,129.4,156.8,118.3z"/>
	<line class="st13" x1="139.6" y1="144.8" x2="117.5" y2="144.8"/>
	<polyline class="st13" points="209.3,194.5 191.7,176.8 174,194.5 	"/>
</g>
<g id="dmx" class="st0">
	<g class="st2">
		<path class="st14" d="M76.3,152.2H59.9v-48.9h16.5c4.2,0,7.7,0.4,10.4,1.3c2.7,0.9,4.9,2.4,6.4,4.4c1.5,2,2.6,4.4,3.1,7.2
			c0.6,2.8,0.9,6.3,0.9,10.8c0,4.4-0.3,8.1-0.8,11c-0.5,2.9-1.5,5.5-3,7.8c-1.5,2.3-3.6,3.9-6.4,5C84.2,151.7,80.7,152.2,76.3,152.2
			z M86.8,132.8c0.1-1.5,0.1-3.7,0.1-6.4c0-2.7-0.1-4.9-0.3-6.5c-0.2-1.6-0.6-3.1-1.4-4.5c-0.7-1.3-1.8-2.3-3.2-2.8
			c-1.4-0.5-3.3-0.8-5.7-0.8h-6.5v31.7h6.5c3.6,0,6.2-0.9,7.8-2.7C85.6,139.4,86.4,136.7,86.8,132.8z"/>
		<path class="st14" d="M104.1,152.2v-48.9H121l8.6,35.7l8.6-35.7h16.9v48.9h-9.9v-37.9h-1.1l-9.6,35.7h-9.9l-9.6-35.7h-1.1v37.9
			H104.1z"/>
		<path class="st14" d="M171.1,103.3l9.1,18l9.3-18h10.3l-14.1,25l14.1,24h-11l-9.1-16.9l-9.3,16.9h-10.3l14.1-23.5l-14.1-25.5
			H171.1z"/>
	</g>
	<path class="st15" d="M211.6,172H47.9c-4.8,0-8.6-3.9-8.6-8.6V92.1c0-4.8,3.9-8.6,8.6-8.6h163.7c4.8,0,8.6,3.9,8.6,8.6v71.2
		C220.3,168.1,216.4,172,211.6,172z"/>
</g>
<g id="alignment_x3F_" class="st0">
	<g class="st2">
		<line class="st27" x1="94.3" y1="33.1" x2="94.3" y2="221.2"/>
		<line class="st27" x1="162.1" y1="33.1" x2="162.1" y2="221.2"/>
		<line class="st27" x1="103.6" y1="93.2" x2="34.2" y2="93.2"/>
		<line class="st27" x1="221.8" y1="93.2" x2="153.3" y2="93.2"/>
		<line class="st27" x1="103.6" y1="168.6" x2="34.2" y2="168.6"/>
		<line class="st27" x1="221.8" y1="168.6" x2="153.3" y2="168.6"/>
	</g>
	<path class="st15" d="M117,176.1V78.9c0-5.3,4.3-9.6,9.6-9.6h2.8c5.3,0,9.6,4.3,9.6,9.6v97.2c0,5.3-4.3,9.6-9.6,9.6h-2.8
		C121.3,185.7,117,181.4,117,176.1z"/>
</g>
<g id="alignment_x3F__copy" class="st0">
	<path class="st15" d="M79.6,151.6h97.2c5.3,0,9.6,4.3,9.6,9.6v2.8c0,5.3-4.3,9.6-9.6,9.6H79.6c-5.3,0-9.6-4.3-9.6-9.6v-2.8
		C70,155.9,74.3,151.6,79.6,151.6z"/>
	<path class="st15" d="M44.5,83.8h167.4c5.3,0,9.6,4.3,9.6,9.6v2.8c0,5.3-4.3,9.6-9.6,9.6H44.5c-5.3,0-9.6-4.3-9.6-9.6v-2.8
		C34.9,88.1,39.2,83.8,44.5,83.8z"/>
</g>
<g id="wifi" class="st0">
	<circle class="st11" cx="131.3" cy="176.9" r="14.8"/>
	<path class="st13" d="M103.7,149.4c15.2-15.2,39.9-15.2,55.2,0"/>
	<path class="st13" d="M82.4,128.1c27-27,70.7-27,97.7,0"/>
	<path class="st13" d="M60.8,106.4c39-39,102.1-39,141.1,0"/>
</g>
</svg>
